%TF.GenerationSoftware,KiCad,Pcbnew,(6.0.0-0)*%
%TF.CreationDate,2022-03-19T01:27:06+08:00*%
%TF.ProjectId,PCB,5043422e-6b69-4636-9164-5f7063625858,rev?*%
%TF.SameCoordinates,Original*%
%TF.FileFunction,Legend,Top*%
%TF.FilePolarity,Positive*%
%FSLAX46Y46*%
G04 Gerber Fmt 4.6, Leading zero omitted, Abs format (unit mm)*
G04 Created by KiCad (PCBNEW (6.0.0-0)) date 2022-03-19 01:27:06*
%MOMM*%
%LPD*%
G01*
G04 APERTURE LIST*
%ADD10C,0.150000*%
%ADD11C,0.015000*%
%ADD12C,0.120000*%
%ADD13C,0.100000*%
%ADD14C,0.200000*%
%ADD15C,0.127000*%
G04 APERTURE END LIST*
D10*
X120452380Y-119380952D02*
X119452380Y-119380952D01*
X120452380Y-118952380D02*
X119928571Y-118952380D01*
X119833333Y-119000000D01*
X119785714Y-119095238D01*
X119785714Y-119238095D01*
X119833333Y-119333333D01*
X119880952Y-119380952D01*
X119785714Y-118619047D02*
X119785714Y-118238095D01*
X119452380Y-118476190D02*
X120309523Y-118476190D01*
X120404761Y-118428571D01*
X120452380Y-118333333D01*
X120452380Y-118238095D01*
X119785714Y-118047619D02*
X119785714Y-117666666D01*
X119452380Y-117904761D02*
X120309523Y-117904761D01*
X120404761Y-117857142D01*
X120452380Y-117761904D01*
X120452380Y-117666666D01*
X119785714Y-117333333D02*
X120785714Y-117333333D01*
X119833333Y-117333333D02*
X119785714Y-117238095D01*
X119785714Y-117047619D01*
X119833333Y-116952380D01*
X119880952Y-116904761D01*
X119976190Y-116857142D01*
X120261904Y-116857142D01*
X120357142Y-116904761D01*
X120404761Y-116952380D01*
X120452380Y-117047619D01*
X120452380Y-117238095D01*
X120404761Y-117333333D01*
X120404761Y-116476190D02*
X120452380Y-116380952D01*
X120452380Y-116190476D01*
X120404761Y-116095238D01*
X120309523Y-116047619D01*
X120261904Y-116047619D01*
X120166666Y-116095238D01*
X120119047Y-116190476D01*
X120119047Y-116333333D01*
X120071428Y-116428571D01*
X119976190Y-116476190D01*
X119928571Y-116476190D01*
X119833333Y-116428571D01*
X119785714Y-116333333D01*
X119785714Y-116190476D01*
X119833333Y-116095238D01*
X120357142Y-115619047D02*
X120404761Y-115571428D01*
X120452380Y-115619047D01*
X120404761Y-115666666D01*
X120357142Y-115619047D01*
X120452380Y-115619047D01*
X119833333Y-115619047D02*
X119880952Y-115571428D01*
X119928571Y-115619047D01*
X119880952Y-115666666D01*
X119833333Y-115619047D01*
X119928571Y-115619047D01*
X119404761Y-114428571D02*
X120690476Y-115285714D01*
X119404761Y-113380952D02*
X120690476Y-114238095D01*
X119785714Y-112619047D02*
X120595238Y-112619047D01*
X120690476Y-112666666D01*
X120738095Y-112714285D01*
X120785714Y-112809523D01*
X120785714Y-112952380D01*
X120738095Y-113047619D01*
X120404761Y-112619047D02*
X120452380Y-112714285D01*
X120452380Y-112904761D01*
X120404761Y-113000000D01*
X120357142Y-113047619D01*
X120261904Y-113095238D01*
X119976190Y-113095238D01*
X119880952Y-113047619D01*
X119833333Y-113000000D01*
X119785714Y-112904761D01*
X119785714Y-112714285D01*
X119833333Y-112619047D01*
X120452380Y-112142857D02*
X119785714Y-112142857D01*
X119452380Y-112142857D02*
X119500000Y-112190476D01*
X119547619Y-112142857D01*
X119500000Y-112095238D01*
X119452380Y-112142857D01*
X119547619Y-112142857D01*
X119785714Y-111809523D02*
X119785714Y-111428571D01*
X119452380Y-111666666D02*
X120309523Y-111666666D01*
X120404761Y-111619047D01*
X120452380Y-111523809D01*
X120452380Y-111428571D01*
X120452380Y-111095238D02*
X119452380Y-111095238D01*
X120452380Y-110666666D02*
X119928571Y-110666666D01*
X119833333Y-110714285D01*
X119785714Y-110809523D01*
X119785714Y-110952380D01*
X119833333Y-111047619D01*
X119880952Y-111095238D01*
X119785714Y-109761904D02*
X120452380Y-109761904D01*
X119785714Y-110190476D02*
X120309523Y-110190476D01*
X120404761Y-110142857D01*
X120452380Y-110047619D01*
X120452380Y-109904761D01*
X120404761Y-109809523D01*
X120357142Y-109761904D01*
X120452380Y-109285714D02*
X119452380Y-109285714D01*
X119833333Y-109285714D02*
X119785714Y-109190476D01*
X119785714Y-109000000D01*
X119833333Y-108904761D01*
X119880952Y-108857142D01*
X119976190Y-108809523D01*
X120261904Y-108809523D01*
X120357142Y-108857142D01*
X120404761Y-108904761D01*
X120452380Y-109000000D01*
X120452380Y-109190476D01*
X120404761Y-109285714D01*
X120357142Y-108380952D02*
X120404761Y-108333333D01*
X120452380Y-108380952D01*
X120404761Y-108428571D01*
X120357142Y-108380952D01*
X120452380Y-108380952D01*
X120404761Y-107476190D02*
X120452380Y-107571428D01*
X120452380Y-107761904D01*
X120404761Y-107857142D01*
X120357142Y-107904761D01*
X120261904Y-107952380D01*
X119976190Y-107952380D01*
X119880952Y-107904761D01*
X119833333Y-107857142D01*
X119785714Y-107761904D01*
X119785714Y-107571428D01*
X119833333Y-107476190D01*
X120452380Y-106904761D02*
X120404761Y-107000000D01*
X120357142Y-107047619D01*
X120261904Y-107095238D01*
X119976190Y-107095238D01*
X119880952Y-107047619D01*
X119833333Y-107000000D01*
X119785714Y-106904761D01*
X119785714Y-106761904D01*
X119833333Y-106666666D01*
X119880952Y-106619047D01*
X119976190Y-106571428D01*
X120261904Y-106571428D01*
X120357142Y-106619047D01*
X120404761Y-106666666D01*
X120452380Y-106761904D01*
X120452380Y-106904761D01*
X120452380Y-106142857D02*
X119785714Y-106142857D01*
X119880952Y-106142857D02*
X119833333Y-106095238D01*
X119785714Y-106000000D01*
X119785714Y-105857142D01*
X119833333Y-105761904D01*
X119928571Y-105714285D01*
X120452380Y-105714285D01*
X119928571Y-105714285D02*
X119833333Y-105666666D01*
X119785714Y-105571428D01*
X119785714Y-105428571D01*
X119833333Y-105333333D01*
X119928571Y-105285714D01*
X120452380Y-105285714D01*
X119404761Y-104095238D02*
X120690476Y-104952380D01*
X119452380Y-103571428D02*
X119452380Y-103380952D01*
X119500000Y-103285714D01*
X119595238Y-103190476D01*
X119785714Y-103142857D01*
X120119047Y-103142857D01*
X120309523Y-103190476D01*
X120404761Y-103285714D01*
X120452380Y-103380952D01*
X120452380Y-103571428D01*
X120404761Y-103666666D01*
X120309523Y-103761904D01*
X120119047Y-103809523D01*
X119785714Y-103809523D01*
X119595238Y-103761904D01*
X119500000Y-103666666D01*
X119452380Y-103571428D01*
X120452380Y-102571428D02*
X120404761Y-102666666D01*
X120309523Y-102714285D01*
X119452380Y-102714285D01*
X120452380Y-102190476D02*
X119785714Y-102190476D01*
X119452380Y-102190476D02*
X119500000Y-102238095D01*
X119547619Y-102190476D01*
X119500000Y-102142857D01*
X119452380Y-102190476D01*
X119547619Y-102190476D01*
X119785714Y-101809523D02*
X120452380Y-101571428D01*
X119785714Y-101333333D01*
X120404761Y-100571428D02*
X120452380Y-100666666D01*
X120452380Y-100857142D01*
X120404761Y-100952380D01*
X120309523Y-101000000D01*
X119928571Y-101000000D01*
X119833333Y-100952380D01*
X119785714Y-100857142D01*
X119785714Y-100666666D01*
X119833333Y-100571428D01*
X119928571Y-100523809D01*
X120023809Y-100523809D01*
X120119047Y-101000000D01*
X120452380Y-100095238D02*
X119785714Y-100095238D01*
X119976190Y-100095238D02*
X119880952Y-100047619D01*
X119833333Y-100000000D01*
X119785714Y-99904761D01*
X119785714Y-99809523D01*
X119452380Y-99285714D02*
X119452380Y-99190476D01*
X119500000Y-99095238D01*
X119547619Y-99047619D01*
X119642857Y-99000000D01*
X119833333Y-98952380D01*
X120071428Y-98952380D01*
X120261904Y-99000000D01*
X120357142Y-99047619D01*
X120404761Y-99095238D01*
X120452380Y-99190476D01*
X120452380Y-99285714D01*
X120404761Y-99380952D01*
X120357142Y-99428571D01*
X120261904Y-99476190D01*
X120071428Y-99523809D01*
X119833333Y-99523809D01*
X119642857Y-99476190D01*
X119547619Y-99428571D01*
X119500000Y-99380952D01*
X119452380Y-99285714D01*
X119880952Y-98380952D02*
X119833333Y-98476190D01*
X119785714Y-98523809D01*
X119690476Y-98571428D01*
X119642857Y-98571428D01*
X119547619Y-98523809D01*
X119500000Y-98476190D01*
X119452380Y-98380952D01*
X119452380Y-98190476D01*
X119500000Y-98095238D01*
X119547619Y-98047619D01*
X119642857Y-98000000D01*
X119690476Y-98000000D01*
X119785714Y-98047619D01*
X119833333Y-98095238D01*
X119880952Y-98190476D01*
X119880952Y-98380952D01*
X119928571Y-98476190D01*
X119976190Y-98523809D01*
X120071428Y-98571428D01*
X120261904Y-98571428D01*
X120357142Y-98523809D01*
X120404761Y-98476190D01*
X120452380Y-98380952D01*
X120452380Y-98190476D01*
X120404761Y-98095238D01*
X120357142Y-98047619D01*
X120261904Y-98000000D01*
X120071428Y-98000000D01*
X119976190Y-98047619D01*
X119928571Y-98095238D01*
X119880952Y-98190476D01*
X119452380Y-97380952D02*
X119452380Y-97285714D01*
X119500000Y-97190476D01*
X119547619Y-97142857D01*
X119642857Y-97095238D01*
X119833333Y-97047619D01*
X120071428Y-97047619D01*
X120261904Y-97095238D01*
X120357142Y-97142857D01*
X120404761Y-97190476D01*
X120452380Y-97285714D01*
X120452380Y-97380952D01*
X120404761Y-97476190D01*
X120357142Y-97523809D01*
X120261904Y-97571428D01*
X120071428Y-97619047D01*
X119833333Y-97619047D01*
X119642857Y-97571428D01*
X119547619Y-97523809D01*
X119500000Y-97476190D01*
X119452380Y-97380952D01*
X119785714Y-96190476D02*
X120452380Y-96190476D01*
X119404761Y-96428571D02*
X120119047Y-96666666D01*
X120119047Y-96047619D01*
X119404761Y-94952380D02*
X120690476Y-95809523D01*
X119928571Y-94619047D02*
X119928571Y-94285714D01*
X120452380Y-94142857D02*
X120452380Y-94619047D01*
X119452380Y-94619047D01*
X119452380Y-94142857D01*
X120404761Y-93761904D02*
X120452380Y-93619047D01*
X120452380Y-93380952D01*
X120404761Y-93285714D01*
X120357142Y-93238095D01*
X120261904Y-93190476D01*
X120166666Y-93190476D01*
X120071428Y-93238095D01*
X120023809Y-93285714D01*
X119976190Y-93380952D01*
X119928571Y-93571428D01*
X119880952Y-93666666D01*
X119833333Y-93714285D01*
X119738095Y-93761904D01*
X119642857Y-93761904D01*
X119547619Y-93714285D01*
X119500000Y-93666666D01*
X119452380Y-93571428D01*
X119452380Y-93333333D01*
X119500000Y-93190476D01*
X120452380Y-92761904D02*
X119452380Y-92761904D01*
X119452380Y-92380952D01*
X119500000Y-92285714D01*
X119547619Y-92238095D01*
X119642857Y-92190476D01*
X119785714Y-92190476D01*
X119880952Y-92238095D01*
X119928571Y-92285714D01*
X119976190Y-92380952D01*
X119976190Y-92761904D01*
X119452380Y-91857142D02*
X119452380Y-91238095D01*
X119833333Y-91571428D01*
X119833333Y-91428571D01*
X119880952Y-91333333D01*
X119928571Y-91285714D01*
X120023809Y-91238095D01*
X120261904Y-91238095D01*
X120357142Y-91285714D01*
X120404761Y-91333333D01*
X120452380Y-91428571D01*
X120452380Y-91714285D01*
X120404761Y-91809523D01*
X120357142Y-91857142D01*
X119547619Y-90857142D02*
X119500000Y-90809523D01*
X119452380Y-90714285D01*
X119452380Y-90476190D01*
X119500000Y-90380952D01*
X119547619Y-90333333D01*
X119642857Y-90285714D01*
X119738095Y-90285714D01*
X119880952Y-90333333D01*
X120452380Y-90904761D01*
X120452380Y-90285714D01*
X120547619Y-90095238D02*
X120547619Y-89333333D01*
X120404761Y-89142857D02*
X120452380Y-89000000D01*
X120452380Y-88761904D01*
X120404761Y-88666666D01*
X120357142Y-88619047D01*
X120261904Y-88571428D01*
X120166666Y-88571428D01*
X120071428Y-88619047D01*
X120023809Y-88666666D01*
X119976190Y-88761904D01*
X119928571Y-88952380D01*
X119880952Y-89047619D01*
X119833333Y-89095238D01*
X119738095Y-89142857D01*
X119642857Y-89142857D01*
X119547619Y-89095238D01*
X119500000Y-89047619D01*
X119452380Y-88952380D01*
X119452380Y-88714285D01*
X119500000Y-88571428D01*
X119785714Y-88142857D02*
X120785714Y-88142857D01*
X119833333Y-88142857D02*
X119785714Y-88047619D01*
X119785714Y-87857142D01*
X119833333Y-87761904D01*
X119880952Y-87714285D01*
X119976190Y-87666666D01*
X120261904Y-87666666D01*
X120357142Y-87714285D01*
X120404761Y-87761904D01*
X120452380Y-87857142D01*
X120452380Y-88047619D01*
X120404761Y-88142857D01*
X120452380Y-86809523D02*
X119928571Y-86809523D01*
X119833333Y-86857142D01*
X119785714Y-86952380D01*
X119785714Y-87142857D01*
X119833333Y-87238095D01*
X120404761Y-86809523D02*
X120452380Y-86904761D01*
X120452380Y-87142857D01*
X120404761Y-87238095D01*
X120309523Y-87285714D01*
X120214285Y-87285714D01*
X120119047Y-87238095D01*
X120071428Y-87142857D01*
X120071428Y-86904761D01*
X120023809Y-86809523D01*
X120404761Y-85904761D02*
X120452380Y-86000000D01*
X120452380Y-86190476D01*
X120404761Y-86285714D01*
X120357142Y-86333333D01*
X120261904Y-86380952D01*
X119976190Y-86380952D01*
X119880952Y-86333333D01*
X119833333Y-86285714D01*
X119785714Y-86190476D01*
X119785714Y-86000000D01*
X119833333Y-85904761D01*
X120404761Y-85095238D02*
X120452380Y-85190476D01*
X120452380Y-85380952D01*
X120404761Y-85476190D01*
X120309523Y-85523809D01*
X119928571Y-85523809D01*
X119833333Y-85476190D01*
X119785714Y-85380952D01*
X119785714Y-85190476D01*
X119833333Y-85095238D01*
X119928571Y-85047619D01*
X120023809Y-85047619D01*
X120119047Y-85523809D01*
X120452380Y-84047619D02*
X119976190Y-84380952D01*
X120452380Y-84619047D02*
X119452380Y-84619047D01*
X119452380Y-84238095D01*
X119500000Y-84142857D01*
X119547619Y-84095238D01*
X119642857Y-84047619D01*
X119785714Y-84047619D01*
X119880952Y-84095238D01*
X119928571Y-84142857D01*
X119976190Y-84238095D01*
X119976190Y-84619047D01*
X120452380Y-83190476D02*
X119928571Y-83190476D01*
X119833333Y-83238095D01*
X119785714Y-83333333D01*
X119785714Y-83523809D01*
X119833333Y-83619047D01*
X120404761Y-83190476D02*
X120452380Y-83285714D01*
X120452380Y-83523809D01*
X120404761Y-83619047D01*
X120309523Y-83666666D01*
X120214285Y-83666666D01*
X120119047Y-83619047D01*
X120071428Y-83523809D01*
X120071428Y-83285714D01*
X120023809Y-83190476D01*
X119785714Y-82857142D02*
X119785714Y-82476190D01*
X119452380Y-82714285D02*
X120309523Y-82714285D01*
X120404761Y-82666666D01*
X120452380Y-82571428D01*
X120452380Y-82476190D01*
X110166666Y-104452380D02*
X110833333Y-104452380D01*
X110166666Y-105452380D01*
X110833333Y-105452380D01*
X114500000Y-105976190D02*
X114500000Y-106452380D01*
X114166666Y-105452380D02*
X114500000Y-105976190D01*
X114833333Y-105452380D01*
X111166666Y-108952380D02*
X111833333Y-109952380D01*
X111833333Y-108952380D02*
X111166666Y-109952380D01*
X112207107Y-106000000D02*
G75*
G03*
X112207107Y-106000000I-707107J0D01*
G01*
X111500000Y-108500000D02*
X112000000Y-108000000D01*
X114000000Y-106000000D02*
X113500000Y-106500000D01*
X113500000Y-105500000D02*
X114000000Y-106000000D01*
X114000000Y-106000000D02*
X113500000Y-105500000D01*
X111000000Y-108000000D02*
X111500000Y-108500000D01*
X111500000Y-108500000D02*
X111000000Y-108000000D01*
X114000000Y-106000000D02*
X111500000Y-106000000D01*
X111500000Y-108500000D02*
X111500000Y-106000000D01*
X111500000Y-106000000D02*
X111500000Y-108500000D01*
%TO.C,U4*%
X82111904Y-90779523D02*
X82759523Y-90779523D01*
X82835714Y-90741428D01*
X82873809Y-90703333D01*
X82911904Y-90627142D01*
X82911904Y-90474761D01*
X82873809Y-90398571D01*
X82835714Y-90360476D01*
X82759523Y-90322380D01*
X82111904Y-90322380D01*
X82378571Y-89598571D02*
X82911904Y-89598571D01*
X82073809Y-89789047D02*
X82645238Y-89979523D01*
X82645238Y-89484285D01*
%TO.C,C7*%
X105475714Y-102863333D02*
X105513809Y-102901428D01*
X105551904Y-103015714D01*
X105551904Y-103091904D01*
X105513809Y-103206190D01*
X105437619Y-103282380D01*
X105361428Y-103320476D01*
X105209047Y-103358571D01*
X105094761Y-103358571D01*
X104942380Y-103320476D01*
X104866190Y-103282380D01*
X104790000Y-103206190D01*
X104751904Y-103091904D01*
X104751904Y-103015714D01*
X104790000Y-102901428D01*
X104828095Y-102863333D01*
X104751904Y-102596666D02*
X104751904Y-102063333D01*
X105551904Y-102406190D01*
%TO.C,R2*%
X96716666Y-115274404D02*
X96450000Y-114893452D01*
X96259523Y-115274404D02*
X96259523Y-114474404D01*
X96564285Y-114474404D01*
X96640476Y-114512500D01*
X96678571Y-114550595D01*
X96716666Y-114626785D01*
X96716666Y-114741071D01*
X96678571Y-114817261D01*
X96640476Y-114855357D01*
X96564285Y-114893452D01*
X96259523Y-114893452D01*
X97021428Y-114550595D02*
X97059523Y-114512500D01*
X97135714Y-114474404D01*
X97326190Y-114474404D01*
X97402380Y-114512500D01*
X97440476Y-114550595D01*
X97478571Y-114626785D01*
X97478571Y-114702976D01*
X97440476Y-114817261D01*
X96983333Y-115274404D01*
X97478571Y-115274404D01*
%TO.C,C15*%
X105441714Y-100082285D02*
X105479809Y-100120380D01*
X105517904Y-100234666D01*
X105517904Y-100310857D01*
X105479809Y-100425142D01*
X105403619Y-100501333D01*
X105327428Y-100539428D01*
X105175047Y-100577523D01*
X105060761Y-100577523D01*
X104908380Y-100539428D01*
X104832190Y-100501333D01*
X104756000Y-100425142D01*
X104717904Y-100310857D01*
X104717904Y-100234666D01*
X104756000Y-100120380D01*
X104794095Y-100082285D01*
X105517904Y-99320380D02*
X105517904Y-99777523D01*
X105517904Y-99548952D02*
X104717904Y-99548952D01*
X104832190Y-99625142D01*
X104908380Y-99701333D01*
X104946476Y-99777523D01*
X104717904Y-98596571D02*
X104717904Y-98977523D01*
X105098857Y-99015619D01*
X105060761Y-98977523D01*
X105022666Y-98901333D01*
X105022666Y-98710857D01*
X105060761Y-98634666D01*
X105098857Y-98596571D01*
X105175047Y-98558476D01*
X105365523Y-98558476D01*
X105441714Y-98596571D01*
X105479809Y-98634666D01*
X105517904Y-98710857D01*
X105517904Y-98901333D01*
X105479809Y-98977523D01*
X105441714Y-99015619D01*
%TO.C,R1*%
X98926666Y-115244404D02*
X98660000Y-114863452D01*
X98469523Y-115244404D02*
X98469523Y-114444404D01*
X98774285Y-114444404D01*
X98850476Y-114482500D01*
X98888571Y-114520595D01*
X98926666Y-114596785D01*
X98926666Y-114711071D01*
X98888571Y-114787261D01*
X98850476Y-114825357D01*
X98774285Y-114863452D01*
X98469523Y-114863452D01*
X99688571Y-115244404D02*
X99231428Y-115244404D01*
X99460000Y-115244404D02*
X99460000Y-114444404D01*
X99383809Y-114558690D01*
X99307619Y-114634880D01*
X99231428Y-114672976D01*
%TO.C,C2*%
X87247714Y-106813333D02*
X87285809Y-106851428D01*
X87323904Y-106965714D01*
X87323904Y-107041904D01*
X87285809Y-107156190D01*
X87209619Y-107232380D01*
X87133428Y-107270476D01*
X86981047Y-107308571D01*
X86866761Y-107308571D01*
X86714380Y-107270476D01*
X86638190Y-107232380D01*
X86562000Y-107156190D01*
X86523904Y-107041904D01*
X86523904Y-106965714D01*
X86562000Y-106851428D01*
X86600095Y-106813333D01*
X86600095Y-106508571D02*
X86562000Y-106470476D01*
X86523904Y-106394285D01*
X86523904Y-106203809D01*
X86562000Y-106127619D01*
X86600095Y-106089523D01*
X86676285Y-106051428D01*
X86752476Y-106051428D01*
X86866761Y-106089523D01*
X87323904Y-106546666D01*
X87323904Y-106051428D01*
%TO.C,SW4*%
X122903215Y-75963279D02*
X122849340Y-75855529D01*
X122714653Y-75720842D01*
X122633841Y-75693905D01*
X122579966Y-75693905D01*
X122499154Y-75720842D01*
X122445279Y-75774717D01*
X122418341Y-75855529D01*
X122418341Y-75909404D01*
X122445279Y-75990216D01*
X122526091Y-76124903D01*
X122553028Y-76205715D01*
X122553028Y-76259590D01*
X122526091Y-76340402D01*
X122472216Y-76394277D01*
X122391404Y-76421215D01*
X122337529Y-76421215D01*
X122256717Y-76394277D01*
X122122030Y-76259590D01*
X122068155Y-76151841D01*
X121852656Y-75990216D02*
X122283654Y-75289844D01*
X121771844Y-75586155D01*
X122068155Y-75074345D01*
X121367783Y-75505343D01*
X121098409Y-74858845D02*
X121475532Y-74481722D01*
X121017597Y-75209032D02*
X121556345Y-74939658D01*
X121206158Y-74589471D01*
%TO.C,C9*%
X74288666Y-113569714D02*
X74250571Y-113607809D01*
X74136285Y-113645904D01*
X74060095Y-113645904D01*
X73945809Y-113607809D01*
X73869619Y-113531619D01*
X73831523Y-113455428D01*
X73793428Y-113303047D01*
X73793428Y-113188761D01*
X73831523Y-113036380D01*
X73869619Y-112960190D01*
X73945809Y-112884000D01*
X74060095Y-112845904D01*
X74136285Y-112845904D01*
X74250571Y-112884000D01*
X74288666Y-112922095D01*
X74669619Y-113645904D02*
X74822000Y-113645904D01*
X74898190Y-113607809D01*
X74936285Y-113569714D01*
X75012476Y-113455428D01*
X75050571Y-113303047D01*
X75050571Y-112998285D01*
X75012476Y-112922095D01*
X74974380Y-112884000D01*
X74898190Y-112845904D01*
X74745809Y-112845904D01*
X74669619Y-112884000D01*
X74631523Y-112922095D01*
X74593428Y-112998285D01*
X74593428Y-113188761D01*
X74631523Y-113264952D01*
X74669619Y-113303047D01*
X74745809Y-113341142D01*
X74898190Y-113341142D01*
X74974380Y-113303047D01*
X75012476Y-113264952D01*
X75050571Y-113188761D01*
%TO.C,R14*%
X76447714Y-112121904D02*
X76181047Y-111740952D01*
X75990571Y-112121904D02*
X75990571Y-111321904D01*
X76295333Y-111321904D01*
X76371523Y-111360000D01*
X76409619Y-111398095D01*
X76447714Y-111474285D01*
X76447714Y-111588571D01*
X76409619Y-111664761D01*
X76371523Y-111702857D01*
X76295333Y-111740952D01*
X75990571Y-111740952D01*
X77209619Y-112121904D02*
X76752476Y-112121904D01*
X76981047Y-112121904D02*
X76981047Y-111321904D01*
X76904857Y-111436190D01*
X76828666Y-111512380D01*
X76752476Y-111550476D01*
X77895333Y-111588571D02*
X77895333Y-112121904D01*
X77704857Y-111283809D02*
X77514380Y-111855238D01*
X78009619Y-111855238D01*
%TO.C,R4*%
X95865904Y-68205333D02*
X95484952Y-68472000D01*
X95865904Y-68662476D02*
X95065904Y-68662476D01*
X95065904Y-68357714D01*
X95104000Y-68281523D01*
X95142095Y-68243428D01*
X95218285Y-68205333D01*
X95332571Y-68205333D01*
X95408761Y-68243428D01*
X95446857Y-68281523D01*
X95484952Y-68357714D01*
X95484952Y-68662476D01*
X95332571Y-67519619D02*
X95865904Y-67519619D01*
X95027809Y-67710095D02*
X95599238Y-67900571D01*
X95599238Y-67405333D01*
%TO.C,D3*%
X112439523Y-75545904D02*
X112439523Y-74745904D01*
X112630000Y-74745904D01*
X112744285Y-74784000D01*
X112820476Y-74860190D01*
X112858571Y-74936380D01*
X112896666Y-75088761D01*
X112896666Y-75203047D01*
X112858571Y-75355428D01*
X112820476Y-75431619D01*
X112744285Y-75507809D01*
X112630000Y-75545904D01*
X112439523Y-75545904D01*
X113163333Y-74745904D02*
X113658571Y-74745904D01*
X113391904Y-75050666D01*
X113506190Y-75050666D01*
X113582380Y-75088761D01*
X113620476Y-75126857D01*
X113658571Y-75203047D01*
X113658571Y-75393523D01*
X113620476Y-75469714D01*
X113582380Y-75507809D01*
X113506190Y-75545904D01*
X113277619Y-75545904D01*
X113201428Y-75507809D01*
X113163333Y-75469714D01*
%TO.C,C12*%
X116325714Y-79787714D02*
X116287619Y-79825809D01*
X116173333Y-79863904D01*
X116097142Y-79863904D01*
X115982857Y-79825809D01*
X115906666Y-79749619D01*
X115868571Y-79673428D01*
X115830476Y-79521047D01*
X115830476Y-79406761D01*
X115868571Y-79254380D01*
X115906666Y-79178190D01*
X115982857Y-79102000D01*
X116097142Y-79063904D01*
X116173333Y-79063904D01*
X116287619Y-79102000D01*
X116325714Y-79140095D01*
X117087619Y-79863904D02*
X116630476Y-79863904D01*
X116859047Y-79863904D02*
X116859047Y-79063904D01*
X116782857Y-79178190D01*
X116706666Y-79254380D01*
X116630476Y-79292476D01*
X117392380Y-79140095D02*
X117430476Y-79102000D01*
X117506666Y-79063904D01*
X117697142Y-79063904D01*
X117773333Y-79102000D01*
X117811428Y-79140095D01*
X117849523Y-79216285D01*
X117849523Y-79292476D01*
X117811428Y-79406761D01*
X117354285Y-79863904D01*
X117849523Y-79863904D01*
%TO.C,R11*%
X107141904Y-70872285D02*
X106760952Y-71138952D01*
X107141904Y-71329428D02*
X106341904Y-71329428D01*
X106341904Y-71024666D01*
X106380000Y-70948476D01*
X106418095Y-70910380D01*
X106494285Y-70872285D01*
X106608571Y-70872285D01*
X106684761Y-70910380D01*
X106722857Y-70948476D01*
X106760952Y-71024666D01*
X106760952Y-71329428D01*
X107141904Y-70110380D02*
X107141904Y-70567523D01*
X107141904Y-70338952D02*
X106341904Y-70338952D01*
X106456190Y-70415142D01*
X106532380Y-70491333D01*
X106570476Y-70567523D01*
X107141904Y-69348476D02*
X107141904Y-69805619D01*
X107141904Y-69577047D02*
X106341904Y-69577047D01*
X106456190Y-69653238D01*
X106532380Y-69729428D01*
X106570476Y-69805619D01*
%TO.C,SW5*%
X71610720Y-83279215D02*
X71718470Y-83225340D01*
X71853157Y-83090653D01*
X71880094Y-83009841D01*
X71880094Y-82955966D01*
X71853157Y-82875154D01*
X71799282Y-82821279D01*
X71718470Y-82794341D01*
X71664595Y-82794341D01*
X71583783Y-82821279D01*
X71449096Y-82902091D01*
X71368284Y-82929028D01*
X71314409Y-82929028D01*
X71233597Y-82902091D01*
X71179722Y-82848216D01*
X71152784Y-82767404D01*
X71152784Y-82713529D01*
X71179722Y-82632717D01*
X71314409Y-82498030D01*
X71422158Y-82444155D01*
X71583783Y-82228656D02*
X72284155Y-82659654D01*
X71987844Y-82147844D01*
X72499654Y-82444155D01*
X72068656Y-81743783D01*
X72553529Y-81258910D02*
X72284155Y-81528284D01*
X72526592Y-81824595D01*
X72526592Y-81770720D01*
X72553529Y-81689908D01*
X72688216Y-81555221D01*
X72769028Y-81528284D01*
X72822903Y-81528284D01*
X72903715Y-81555221D01*
X73038402Y-81689908D01*
X73065340Y-81770720D01*
X73065340Y-81824595D01*
X73038402Y-81905407D01*
X72903715Y-82040094D01*
X72822903Y-82067032D01*
X72769028Y-82067032D01*
%TO.C,R25*%
X75939714Y-87229904D02*
X75673047Y-86848952D01*
X75482571Y-87229904D02*
X75482571Y-86429904D01*
X75787333Y-86429904D01*
X75863523Y-86468000D01*
X75901619Y-86506095D01*
X75939714Y-86582285D01*
X75939714Y-86696571D01*
X75901619Y-86772761D01*
X75863523Y-86810857D01*
X75787333Y-86848952D01*
X75482571Y-86848952D01*
X76244476Y-86506095D02*
X76282571Y-86468000D01*
X76358761Y-86429904D01*
X76549238Y-86429904D01*
X76625428Y-86468000D01*
X76663523Y-86506095D01*
X76701619Y-86582285D01*
X76701619Y-86658476D01*
X76663523Y-86772761D01*
X76206380Y-87229904D01*
X76701619Y-87229904D01*
X77425428Y-86429904D02*
X77044476Y-86429904D01*
X77006380Y-86810857D01*
X77044476Y-86772761D01*
X77120666Y-86734666D01*
X77311142Y-86734666D01*
X77387333Y-86772761D01*
X77425428Y-86810857D01*
X77463523Y-86887047D01*
X77463523Y-87077523D01*
X77425428Y-87153714D01*
X77387333Y-87191809D01*
X77311142Y-87229904D01*
X77120666Y-87229904D01*
X77044476Y-87191809D01*
X77006380Y-87153714D01*
%TO.C,U3*%
X89731904Y-121259523D02*
X90379523Y-121259523D01*
X90455714Y-121221428D01*
X90493809Y-121183333D01*
X90531904Y-121107142D01*
X90531904Y-120954761D01*
X90493809Y-120878571D01*
X90455714Y-120840476D01*
X90379523Y-120802380D01*
X89731904Y-120802380D01*
X89731904Y-120497619D02*
X89731904Y-120002380D01*
X90036666Y-120269047D01*
X90036666Y-120154761D01*
X90074761Y-120078571D01*
X90112857Y-120040476D01*
X90189047Y-120002380D01*
X90379523Y-120002380D01*
X90455714Y-120040476D01*
X90493809Y-120078571D01*
X90531904Y-120154761D01*
X90531904Y-120383333D01*
X90493809Y-120459523D01*
X90455714Y-120497619D01*
%TO.C,Y1*%
X107823047Y-115042952D02*
X107823047Y-115423904D01*
X107556380Y-114623904D02*
X107823047Y-115042952D01*
X108089714Y-114623904D01*
X108775428Y-115423904D02*
X108318285Y-115423904D01*
X108546857Y-115423904D02*
X108546857Y-114623904D01*
X108470666Y-114738190D01*
X108394476Y-114814380D01*
X108318285Y-114852476D01*
%TO.C,SW3*%
X104089333Y-108019809D02*
X104203619Y-108057904D01*
X104394095Y-108057904D01*
X104470285Y-108019809D01*
X104508380Y-107981714D01*
X104546476Y-107905523D01*
X104546476Y-107829333D01*
X104508380Y-107753142D01*
X104470285Y-107715047D01*
X104394095Y-107676952D01*
X104241714Y-107638857D01*
X104165523Y-107600761D01*
X104127428Y-107562666D01*
X104089333Y-107486476D01*
X104089333Y-107410285D01*
X104127428Y-107334095D01*
X104165523Y-107296000D01*
X104241714Y-107257904D01*
X104432190Y-107257904D01*
X104546476Y-107296000D01*
X104813142Y-107257904D02*
X105003619Y-108057904D01*
X105156000Y-107486476D01*
X105308380Y-108057904D01*
X105498857Y-107257904D01*
X105727428Y-107257904D02*
X106222666Y-107257904D01*
X105956000Y-107562666D01*
X106070285Y-107562666D01*
X106146476Y-107600761D01*
X106184571Y-107638857D01*
X106222666Y-107715047D01*
X106222666Y-107905523D01*
X106184571Y-107981714D01*
X106146476Y-108019809D01*
X106070285Y-108057904D01*
X105841714Y-108057904D01*
X105765523Y-108019809D01*
X105727428Y-107981714D01*
%TO.C,C4*%
X84416666Y-102695714D02*
X84378571Y-102733809D01*
X84264285Y-102771904D01*
X84188095Y-102771904D01*
X84073809Y-102733809D01*
X83997619Y-102657619D01*
X83959523Y-102581428D01*
X83921428Y-102429047D01*
X83921428Y-102314761D01*
X83959523Y-102162380D01*
X83997619Y-102086190D01*
X84073809Y-102010000D01*
X84188095Y-101971904D01*
X84264285Y-101971904D01*
X84378571Y-102010000D01*
X84416666Y-102048095D01*
X85102380Y-102238571D02*
X85102380Y-102771904D01*
X84911904Y-101933809D02*
X84721428Y-102505238D01*
X85216666Y-102505238D01*
%TO.C,R12*%
X76447714Y-110597904D02*
X76181047Y-110216952D01*
X75990571Y-110597904D02*
X75990571Y-109797904D01*
X76295333Y-109797904D01*
X76371523Y-109836000D01*
X76409619Y-109874095D01*
X76447714Y-109950285D01*
X76447714Y-110064571D01*
X76409619Y-110140761D01*
X76371523Y-110178857D01*
X76295333Y-110216952D01*
X75990571Y-110216952D01*
X77209619Y-110597904D02*
X76752476Y-110597904D01*
X76981047Y-110597904D02*
X76981047Y-109797904D01*
X76904857Y-109912190D01*
X76828666Y-109988380D01*
X76752476Y-110026476D01*
X77514380Y-109874095D02*
X77552476Y-109836000D01*
X77628666Y-109797904D01*
X77819142Y-109797904D01*
X77895333Y-109836000D01*
X77933428Y-109874095D01*
X77971523Y-109950285D01*
X77971523Y-110026476D01*
X77933428Y-110140761D01*
X77476285Y-110597904D01*
X77971523Y-110597904D01*
%TO.C,SW1*%
X116655809Y-125272666D02*
X116693904Y-125158380D01*
X116693904Y-124967904D01*
X116655809Y-124891714D01*
X116617714Y-124853619D01*
X116541523Y-124815523D01*
X116465333Y-124815523D01*
X116389142Y-124853619D01*
X116351047Y-124891714D01*
X116312952Y-124967904D01*
X116274857Y-125120285D01*
X116236761Y-125196476D01*
X116198666Y-125234571D01*
X116122476Y-125272666D01*
X116046285Y-125272666D01*
X115970095Y-125234571D01*
X115932000Y-125196476D01*
X115893904Y-125120285D01*
X115893904Y-124929809D01*
X115932000Y-124815523D01*
X115893904Y-124548857D02*
X116693904Y-124358380D01*
X116122476Y-124206000D01*
X116693904Y-124053619D01*
X115893904Y-123863142D01*
X116693904Y-123139333D02*
X116693904Y-123596476D01*
X116693904Y-123367904D02*
X115893904Y-123367904D01*
X116008190Y-123444095D01*
X116084380Y-123520285D01*
X116122476Y-123596476D01*
%TO.C,C10*%
X121443714Y-124720285D02*
X121481809Y-124758380D01*
X121519904Y-124872666D01*
X121519904Y-124948857D01*
X121481809Y-125063142D01*
X121405619Y-125139333D01*
X121329428Y-125177428D01*
X121177047Y-125215523D01*
X121062761Y-125215523D01*
X120910380Y-125177428D01*
X120834190Y-125139333D01*
X120758000Y-125063142D01*
X120719904Y-124948857D01*
X120719904Y-124872666D01*
X120758000Y-124758380D01*
X120796095Y-124720285D01*
X121519904Y-123958380D02*
X121519904Y-124415523D01*
X121519904Y-124186952D02*
X120719904Y-124186952D01*
X120834190Y-124263142D01*
X120910380Y-124339333D01*
X120948476Y-124415523D01*
X120719904Y-123463142D02*
X120719904Y-123386952D01*
X120758000Y-123310761D01*
X120796095Y-123272666D01*
X120872285Y-123234571D01*
X121024666Y-123196476D01*
X121215142Y-123196476D01*
X121367523Y-123234571D01*
X121443714Y-123272666D01*
X121481809Y-123310761D01*
X121519904Y-123386952D01*
X121519904Y-123463142D01*
X121481809Y-123539333D01*
X121443714Y-123577428D01*
X121367523Y-123615523D01*
X121215142Y-123653619D01*
X121024666Y-123653619D01*
X120872285Y-123615523D01*
X120796095Y-123577428D01*
X120758000Y-123539333D01*
X120719904Y-123463142D01*
%TO.C,R22*%
X91801904Y-70618285D02*
X91420952Y-70884952D01*
X91801904Y-71075428D02*
X91001904Y-71075428D01*
X91001904Y-70770666D01*
X91040000Y-70694476D01*
X91078095Y-70656380D01*
X91154285Y-70618285D01*
X91268571Y-70618285D01*
X91344761Y-70656380D01*
X91382857Y-70694476D01*
X91420952Y-70770666D01*
X91420952Y-71075428D01*
X91078095Y-70313523D02*
X91040000Y-70275428D01*
X91001904Y-70199238D01*
X91001904Y-70008761D01*
X91040000Y-69932571D01*
X91078095Y-69894476D01*
X91154285Y-69856380D01*
X91230476Y-69856380D01*
X91344761Y-69894476D01*
X91801904Y-70351619D01*
X91801904Y-69856380D01*
X91078095Y-69551619D02*
X91040000Y-69513523D01*
X91001904Y-69437333D01*
X91001904Y-69246857D01*
X91040000Y-69170666D01*
X91078095Y-69132571D01*
X91154285Y-69094476D01*
X91230476Y-69094476D01*
X91344761Y-69132571D01*
X91801904Y-69589714D01*
X91801904Y-69094476D01*
%TO.C,C13*%
X94735714Y-93249714D02*
X94697619Y-93287809D01*
X94583333Y-93325904D01*
X94507142Y-93325904D01*
X94392857Y-93287809D01*
X94316666Y-93211619D01*
X94278571Y-93135428D01*
X94240476Y-92983047D01*
X94240476Y-92868761D01*
X94278571Y-92716380D01*
X94316666Y-92640190D01*
X94392857Y-92564000D01*
X94507142Y-92525904D01*
X94583333Y-92525904D01*
X94697619Y-92564000D01*
X94735714Y-92602095D01*
X95497619Y-93325904D02*
X95040476Y-93325904D01*
X95269047Y-93325904D02*
X95269047Y-92525904D01*
X95192857Y-92640190D01*
X95116666Y-92716380D01*
X95040476Y-92754476D01*
X95764285Y-92525904D02*
X96259523Y-92525904D01*
X95992857Y-92830666D01*
X96107142Y-92830666D01*
X96183333Y-92868761D01*
X96221428Y-92906857D01*
X96259523Y-92983047D01*
X96259523Y-93173523D01*
X96221428Y-93249714D01*
X96183333Y-93287809D01*
X96107142Y-93325904D01*
X95878571Y-93325904D01*
X95802380Y-93287809D01*
X95764285Y-93249714D01*
%TO.C,D4*%
X86531523Y-101419904D02*
X86531523Y-100619904D01*
X86722000Y-100619904D01*
X86836285Y-100658000D01*
X86912476Y-100734190D01*
X86950571Y-100810380D01*
X86988666Y-100962761D01*
X86988666Y-101077047D01*
X86950571Y-101229428D01*
X86912476Y-101305619D01*
X86836285Y-101381809D01*
X86722000Y-101419904D01*
X86531523Y-101419904D01*
X87674380Y-100886571D02*
X87674380Y-101419904D01*
X87483904Y-100581809D02*
X87293428Y-101153238D01*
X87788666Y-101153238D01*
%TO.C,R15*%
X111259904Y-94494285D02*
X110878952Y-94760952D01*
X111259904Y-94951428D02*
X110459904Y-94951428D01*
X110459904Y-94646666D01*
X110498000Y-94570476D01*
X110536095Y-94532380D01*
X110612285Y-94494285D01*
X110726571Y-94494285D01*
X110802761Y-94532380D01*
X110840857Y-94570476D01*
X110878952Y-94646666D01*
X110878952Y-94951428D01*
X111259904Y-93732380D02*
X111259904Y-94189523D01*
X111259904Y-93960952D02*
X110459904Y-93960952D01*
X110574190Y-94037142D01*
X110650380Y-94113333D01*
X110688476Y-94189523D01*
X110459904Y-93008571D02*
X110459904Y-93389523D01*
X110840857Y-93427619D01*
X110802761Y-93389523D01*
X110764666Y-93313333D01*
X110764666Y-93122857D01*
X110802761Y-93046666D01*
X110840857Y-93008571D01*
X110917047Y-92970476D01*
X111107523Y-92970476D01*
X111183714Y-93008571D01*
X111221809Y-93046666D01*
X111259904Y-93122857D01*
X111259904Y-93313333D01*
X111221809Y-93389523D01*
X111183714Y-93427619D01*
%TO.C,R16*%
X112579904Y-94494285D02*
X112198952Y-94760952D01*
X112579904Y-94951428D02*
X111779904Y-94951428D01*
X111779904Y-94646666D01*
X111818000Y-94570476D01*
X111856095Y-94532380D01*
X111932285Y-94494285D01*
X112046571Y-94494285D01*
X112122761Y-94532380D01*
X112160857Y-94570476D01*
X112198952Y-94646666D01*
X112198952Y-94951428D01*
X112579904Y-93732380D02*
X112579904Y-94189523D01*
X112579904Y-93960952D02*
X111779904Y-93960952D01*
X111894190Y-94037142D01*
X111970380Y-94113333D01*
X112008476Y-94189523D01*
X111779904Y-93046666D02*
X111779904Y-93199047D01*
X111818000Y-93275238D01*
X111856095Y-93313333D01*
X111970380Y-93389523D01*
X112122761Y-93427619D01*
X112427523Y-93427619D01*
X112503714Y-93389523D01*
X112541809Y-93351428D01*
X112579904Y-93275238D01*
X112579904Y-93122857D01*
X112541809Y-93046666D01*
X112503714Y-93008571D01*
X112427523Y-92970476D01*
X112237047Y-92970476D01*
X112160857Y-93008571D01*
X112122761Y-93046666D01*
X112084666Y-93122857D01*
X112084666Y-93275238D01*
X112122761Y-93351428D01*
X112160857Y-93389523D01*
X112237047Y-93427619D01*
%TO.C,R3*%
X98151904Y-68205333D02*
X97770952Y-68472000D01*
X98151904Y-68662476D02*
X97351904Y-68662476D01*
X97351904Y-68357714D01*
X97390000Y-68281523D01*
X97428095Y-68243428D01*
X97504285Y-68205333D01*
X97618571Y-68205333D01*
X97694761Y-68243428D01*
X97732857Y-68281523D01*
X97770952Y-68357714D01*
X97770952Y-68662476D01*
X97351904Y-67938666D02*
X97351904Y-67443428D01*
X97656666Y-67710095D01*
X97656666Y-67595809D01*
X97694761Y-67519619D01*
X97732857Y-67481523D01*
X97809047Y-67443428D01*
X97999523Y-67443428D01*
X98075714Y-67481523D01*
X98113809Y-67519619D01*
X98151904Y-67595809D01*
X98151904Y-67824380D01*
X98113809Y-67900571D01*
X98075714Y-67938666D01*
%TO.C,C1*%
X106203714Y-116719333D02*
X106241809Y-116757428D01*
X106279904Y-116871714D01*
X106279904Y-116947904D01*
X106241809Y-117062190D01*
X106165619Y-117138380D01*
X106089428Y-117176476D01*
X105937047Y-117214571D01*
X105822761Y-117214571D01*
X105670380Y-117176476D01*
X105594190Y-117138380D01*
X105518000Y-117062190D01*
X105479904Y-116947904D01*
X105479904Y-116871714D01*
X105518000Y-116757428D01*
X105556095Y-116719333D01*
X106279904Y-115957428D02*
X106279904Y-116414571D01*
X106279904Y-116186000D02*
X105479904Y-116186000D01*
X105594190Y-116262190D01*
X105670380Y-116338380D01*
X105708476Y-116414571D01*
%TO.C,R13*%
X115309714Y-119487904D02*
X115043047Y-119106952D01*
X114852571Y-119487904D02*
X114852571Y-118687904D01*
X115157333Y-118687904D01*
X115233523Y-118726000D01*
X115271619Y-118764095D01*
X115309714Y-118840285D01*
X115309714Y-118954571D01*
X115271619Y-119030761D01*
X115233523Y-119068857D01*
X115157333Y-119106952D01*
X114852571Y-119106952D01*
X116071619Y-119487904D02*
X115614476Y-119487904D01*
X115843047Y-119487904D02*
X115843047Y-118687904D01*
X115766857Y-118802190D01*
X115690666Y-118878380D01*
X115614476Y-118916476D01*
X116338285Y-118687904D02*
X116833523Y-118687904D01*
X116566857Y-118992666D01*
X116681142Y-118992666D01*
X116757333Y-119030761D01*
X116795428Y-119068857D01*
X116833523Y-119145047D01*
X116833523Y-119335523D01*
X116795428Y-119411714D01*
X116757333Y-119449809D01*
X116681142Y-119487904D01*
X116452571Y-119487904D01*
X116376380Y-119449809D01*
X116338285Y-119411714D01*
D11*
%TO.C,P1*%
X94341904Y-131654476D02*
X93541904Y-131654476D01*
X93541904Y-131349714D01*
X93580000Y-131273523D01*
X93618095Y-131235428D01*
X93694285Y-131197333D01*
X93808571Y-131197333D01*
X93884761Y-131235428D01*
X93922857Y-131273523D01*
X93960952Y-131349714D01*
X93960952Y-131654476D01*
X94341904Y-130435428D02*
X94341904Y-130892571D01*
X94341904Y-130664000D02*
X93541904Y-130664000D01*
X93656190Y-130740190D01*
X93732380Y-130816380D01*
X93770476Y-130892571D01*
D10*
%TO.C,R10*%
X95103904Y-95764285D02*
X94722952Y-96030952D01*
X95103904Y-96221428D02*
X94303904Y-96221428D01*
X94303904Y-95916666D01*
X94342000Y-95840476D01*
X94380095Y-95802380D01*
X94456285Y-95764285D01*
X94570571Y-95764285D01*
X94646761Y-95802380D01*
X94684857Y-95840476D01*
X94722952Y-95916666D01*
X94722952Y-96221428D01*
X95103904Y-95002380D02*
X95103904Y-95459523D01*
X95103904Y-95230952D02*
X94303904Y-95230952D01*
X94418190Y-95307142D01*
X94494380Y-95383333D01*
X94532476Y-95459523D01*
X94303904Y-94507142D02*
X94303904Y-94430952D01*
X94342000Y-94354761D01*
X94380095Y-94316666D01*
X94456285Y-94278571D01*
X94608666Y-94240476D01*
X94799142Y-94240476D01*
X94951523Y-94278571D01*
X95027714Y-94316666D01*
X95065809Y-94354761D01*
X95103904Y-94430952D01*
X95103904Y-94507142D01*
X95065809Y-94583333D01*
X95027714Y-94621428D01*
X94951523Y-94659523D01*
X94799142Y-94697619D01*
X94608666Y-94697619D01*
X94456285Y-94659523D01*
X94380095Y-94621428D01*
X94342000Y-94583333D01*
X94303904Y-94507142D01*
%TO.C,Q2*%
X96443809Y-108896095D02*
X96367619Y-108858000D01*
X96291428Y-108781809D01*
X96177142Y-108667523D01*
X96100952Y-108629428D01*
X96024761Y-108629428D01*
X96062857Y-108819904D02*
X95986666Y-108781809D01*
X95910476Y-108705619D01*
X95872380Y-108553238D01*
X95872380Y-108286571D01*
X95910476Y-108134190D01*
X95986666Y-108058000D01*
X96062857Y-108019904D01*
X96215238Y-108019904D01*
X96291428Y-108058000D01*
X96367619Y-108134190D01*
X96405714Y-108286571D01*
X96405714Y-108553238D01*
X96367619Y-108705619D01*
X96291428Y-108781809D01*
X96215238Y-108819904D01*
X96062857Y-108819904D01*
X96710476Y-108096095D02*
X96748571Y-108058000D01*
X96824761Y-108019904D01*
X97015238Y-108019904D01*
X97091428Y-108058000D01*
X97129523Y-108096095D01*
X97167619Y-108172285D01*
X97167619Y-108248476D01*
X97129523Y-108362761D01*
X96672380Y-108819904D01*
X97167619Y-108819904D01*
%TO.C,U5*%
X95573904Y-102463523D02*
X96221523Y-102463523D01*
X96297714Y-102425428D01*
X96335809Y-102387333D01*
X96373904Y-102311142D01*
X96373904Y-102158761D01*
X96335809Y-102082571D01*
X96297714Y-102044476D01*
X96221523Y-102006380D01*
X95573904Y-102006380D01*
X95573904Y-101244476D02*
X95573904Y-101625428D01*
X95954857Y-101663523D01*
X95916761Y-101625428D01*
X95878666Y-101549238D01*
X95878666Y-101358761D01*
X95916761Y-101282571D01*
X95954857Y-101244476D01*
X96031047Y-101206380D01*
X96221523Y-101206380D01*
X96297714Y-101244476D01*
X96335809Y-101282571D01*
X96373904Y-101358761D01*
X96373904Y-101549238D01*
X96335809Y-101625428D01*
X96297714Y-101663523D01*
%TO.C,R19*%
X92055904Y-124111926D02*
X91674952Y-124378593D01*
X92055904Y-124569069D02*
X91255904Y-124569069D01*
X91255904Y-124264307D01*
X91294000Y-124188117D01*
X91332095Y-124150021D01*
X91408285Y-124111926D01*
X91522571Y-124111926D01*
X91598761Y-124150021D01*
X91636857Y-124188117D01*
X91674952Y-124264307D01*
X91674952Y-124569069D01*
X92055904Y-123350021D02*
X92055904Y-123807164D01*
X92055904Y-123578593D02*
X91255904Y-123578593D01*
X91370190Y-123654783D01*
X91446380Y-123730974D01*
X91484476Y-123807164D01*
X92055904Y-122969069D02*
X92055904Y-122816688D01*
X92017809Y-122740498D01*
X91979714Y-122702402D01*
X91865428Y-122626212D01*
X91713047Y-122588117D01*
X91408285Y-122588117D01*
X91332095Y-122626212D01*
X91294000Y-122664307D01*
X91255904Y-122740498D01*
X91255904Y-122892879D01*
X91294000Y-122969069D01*
X91332095Y-123007164D01*
X91408285Y-123045260D01*
X91598761Y-123045260D01*
X91674952Y-123007164D01*
X91713047Y-122969069D01*
X91751142Y-122892879D01*
X91751142Y-122740498D01*
X91713047Y-122664307D01*
X91674952Y-122626212D01*
X91598761Y-122588117D01*
%TO.C,R23*%
X116325714Y-78339904D02*
X116059047Y-77958952D01*
X115868571Y-78339904D02*
X115868571Y-77539904D01*
X116173333Y-77539904D01*
X116249523Y-77578000D01*
X116287619Y-77616095D01*
X116325714Y-77692285D01*
X116325714Y-77806571D01*
X116287619Y-77882761D01*
X116249523Y-77920857D01*
X116173333Y-77958952D01*
X115868571Y-77958952D01*
X116630476Y-77616095D02*
X116668571Y-77578000D01*
X116744761Y-77539904D01*
X116935238Y-77539904D01*
X117011428Y-77578000D01*
X117049523Y-77616095D01*
X117087619Y-77692285D01*
X117087619Y-77768476D01*
X117049523Y-77882761D01*
X116592380Y-78339904D01*
X117087619Y-78339904D01*
X117354285Y-77539904D02*
X117849523Y-77539904D01*
X117582857Y-77844666D01*
X117697142Y-77844666D01*
X117773333Y-77882761D01*
X117811428Y-77920857D01*
X117849523Y-77997047D01*
X117849523Y-78187523D01*
X117811428Y-78263714D01*
X117773333Y-78301809D01*
X117697142Y-78339904D01*
X117468571Y-78339904D01*
X117392380Y-78301809D01*
X117354285Y-78263714D01*
%TO.C,D5*%
X87801523Y-115897904D02*
X87801523Y-115097904D01*
X87992000Y-115097904D01*
X88106285Y-115136000D01*
X88182476Y-115212190D01*
X88220571Y-115288380D01*
X88258666Y-115440761D01*
X88258666Y-115555047D01*
X88220571Y-115707428D01*
X88182476Y-115783619D01*
X88106285Y-115859809D01*
X87992000Y-115897904D01*
X87801523Y-115897904D01*
X88982476Y-115097904D02*
X88601523Y-115097904D01*
X88563428Y-115478857D01*
X88601523Y-115440761D01*
X88677714Y-115402666D01*
X88868190Y-115402666D01*
X88944380Y-115440761D01*
X88982476Y-115478857D01*
X89020571Y-115555047D01*
X89020571Y-115745523D01*
X88982476Y-115821714D01*
X88944380Y-115859809D01*
X88868190Y-115897904D01*
X88677714Y-115897904D01*
X88601523Y-115859809D01*
X88563428Y-115821714D01*
%TO.C,R8*%
X86226666Y-115523904D02*
X85960000Y-115142952D01*
X85769523Y-115523904D02*
X85769523Y-114723904D01*
X86074285Y-114723904D01*
X86150476Y-114762000D01*
X86188571Y-114800095D01*
X86226666Y-114876285D01*
X86226666Y-114990571D01*
X86188571Y-115066761D01*
X86150476Y-115104857D01*
X86074285Y-115142952D01*
X85769523Y-115142952D01*
X86683809Y-115066761D02*
X86607619Y-115028666D01*
X86569523Y-114990571D01*
X86531428Y-114914380D01*
X86531428Y-114876285D01*
X86569523Y-114800095D01*
X86607619Y-114762000D01*
X86683809Y-114723904D01*
X86836190Y-114723904D01*
X86912380Y-114762000D01*
X86950476Y-114800095D01*
X86988571Y-114876285D01*
X86988571Y-114914380D01*
X86950476Y-114990571D01*
X86912380Y-115028666D01*
X86836190Y-115066761D01*
X86683809Y-115066761D01*
X86607619Y-115104857D01*
X86569523Y-115142952D01*
X86531428Y-115219142D01*
X86531428Y-115371523D01*
X86569523Y-115447714D01*
X86607619Y-115485809D01*
X86683809Y-115523904D01*
X86836190Y-115523904D01*
X86912380Y-115485809D01*
X86950476Y-115447714D01*
X86988571Y-115371523D01*
X86988571Y-115219142D01*
X86950476Y-115142952D01*
X86912380Y-115104857D01*
X86836190Y-115066761D01*
%TO.C,R20*%
X111359904Y-101098285D02*
X110978952Y-101364952D01*
X111359904Y-101555428D02*
X110559904Y-101555428D01*
X110559904Y-101250666D01*
X110598000Y-101174476D01*
X110636095Y-101136380D01*
X110712285Y-101098285D01*
X110826571Y-101098285D01*
X110902761Y-101136380D01*
X110940857Y-101174476D01*
X110978952Y-101250666D01*
X110978952Y-101555428D01*
X110636095Y-100793523D02*
X110598000Y-100755428D01*
X110559904Y-100679238D01*
X110559904Y-100488761D01*
X110598000Y-100412571D01*
X110636095Y-100374476D01*
X110712285Y-100336380D01*
X110788476Y-100336380D01*
X110902761Y-100374476D01*
X111359904Y-100831619D01*
X111359904Y-100336380D01*
X110559904Y-99841142D02*
X110559904Y-99764952D01*
X110598000Y-99688761D01*
X110636095Y-99650666D01*
X110712285Y-99612571D01*
X110864666Y-99574476D01*
X111055142Y-99574476D01*
X111207523Y-99612571D01*
X111283714Y-99650666D01*
X111321809Y-99688761D01*
X111359904Y-99764952D01*
X111359904Y-99841142D01*
X111321809Y-99917333D01*
X111283714Y-99955428D01*
X111207523Y-99993523D01*
X111055142Y-100031619D01*
X110864666Y-100031619D01*
X110712285Y-99993523D01*
X110636095Y-99955428D01*
X110598000Y-99917333D01*
X110559904Y-99841142D01*
%TO.C,R9*%
X93833904Y-95891333D02*
X93452952Y-96158000D01*
X93833904Y-96348476D02*
X93033904Y-96348476D01*
X93033904Y-96043714D01*
X93072000Y-95967523D01*
X93110095Y-95929428D01*
X93186285Y-95891333D01*
X93300571Y-95891333D01*
X93376761Y-95929428D01*
X93414857Y-95967523D01*
X93452952Y-96043714D01*
X93452952Y-96348476D01*
X93833904Y-95510380D02*
X93833904Y-95358000D01*
X93795809Y-95281809D01*
X93757714Y-95243714D01*
X93643428Y-95167523D01*
X93491047Y-95129428D01*
X93186285Y-95129428D01*
X93110095Y-95167523D01*
X93072000Y-95205619D01*
X93033904Y-95281809D01*
X93033904Y-95434190D01*
X93072000Y-95510380D01*
X93110095Y-95548476D01*
X93186285Y-95586571D01*
X93376761Y-95586571D01*
X93452952Y-95548476D01*
X93491047Y-95510380D01*
X93529142Y-95434190D01*
X93529142Y-95281809D01*
X93491047Y-95205619D01*
X93452952Y-95167523D01*
X93376761Y-95129428D01*
%TO.C,U1*%
X84440476Y-108601904D02*
X84440476Y-109249523D01*
X84478571Y-109325714D01*
X84516666Y-109363809D01*
X84592857Y-109401904D01*
X84745238Y-109401904D01*
X84821428Y-109363809D01*
X84859523Y-109325714D01*
X84897619Y-109249523D01*
X84897619Y-108601904D01*
X85697619Y-109401904D02*
X85240476Y-109401904D01*
X85469047Y-109401904D02*
X85469047Y-108601904D01*
X85392857Y-108716190D01*
X85316666Y-108792380D01*
X85240476Y-108830476D01*
%TO.C,J2*%
X73983904Y-118630666D02*
X74555333Y-118630666D01*
X74669619Y-118668761D01*
X74745809Y-118744952D01*
X74783904Y-118859238D01*
X74783904Y-118935428D01*
X74060095Y-118287809D02*
X74022000Y-118249714D01*
X73983904Y-118173523D01*
X73983904Y-117983047D01*
X74022000Y-117906857D01*
X74060095Y-117868761D01*
X74136285Y-117830666D01*
X74212476Y-117830666D01*
X74326761Y-117868761D01*
X74783904Y-118325904D01*
X74783904Y-117830666D01*
%TO.C,Q1*%
X100253809Y-108896095D02*
X100177619Y-108858000D01*
X100101428Y-108781809D01*
X99987142Y-108667523D01*
X99910952Y-108629428D01*
X99834761Y-108629428D01*
X99872857Y-108819904D02*
X99796666Y-108781809D01*
X99720476Y-108705619D01*
X99682380Y-108553238D01*
X99682380Y-108286571D01*
X99720476Y-108134190D01*
X99796666Y-108058000D01*
X99872857Y-108019904D01*
X100025238Y-108019904D01*
X100101428Y-108058000D01*
X100177619Y-108134190D01*
X100215714Y-108286571D01*
X100215714Y-108553238D01*
X100177619Y-108705619D01*
X100101428Y-108781809D01*
X100025238Y-108819904D01*
X99872857Y-108819904D01*
X100977619Y-108819904D02*
X100520476Y-108819904D01*
X100749047Y-108819904D02*
X100749047Y-108019904D01*
X100672857Y-108134190D01*
X100596666Y-108210380D01*
X100520476Y-108248476D01*
%TO.C,R18*%
X93951904Y-110296785D02*
X93570952Y-110563452D01*
X93951904Y-110753928D02*
X93151904Y-110753928D01*
X93151904Y-110449166D01*
X93190000Y-110372976D01*
X93228095Y-110334880D01*
X93304285Y-110296785D01*
X93418571Y-110296785D01*
X93494761Y-110334880D01*
X93532857Y-110372976D01*
X93570952Y-110449166D01*
X93570952Y-110753928D01*
X93951904Y-109534880D02*
X93951904Y-109992023D01*
X93951904Y-109763452D02*
X93151904Y-109763452D01*
X93266190Y-109839642D01*
X93342380Y-109915833D01*
X93380476Y-109992023D01*
X93494761Y-109077738D02*
X93456666Y-109153928D01*
X93418571Y-109192023D01*
X93342380Y-109230119D01*
X93304285Y-109230119D01*
X93228095Y-109192023D01*
X93190000Y-109153928D01*
X93151904Y-109077738D01*
X93151904Y-108925357D01*
X93190000Y-108849166D01*
X93228095Y-108811071D01*
X93304285Y-108772976D01*
X93342380Y-108772976D01*
X93418571Y-108811071D01*
X93456666Y-108849166D01*
X93494761Y-108925357D01*
X93494761Y-109077738D01*
X93532857Y-109153928D01*
X93570952Y-109192023D01*
X93647142Y-109230119D01*
X93799523Y-109230119D01*
X93875714Y-109192023D01*
X93913809Y-109153928D01*
X93951904Y-109077738D01*
X93951904Y-108925357D01*
X93913809Y-108849166D01*
X93875714Y-108811071D01*
X93799523Y-108772976D01*
X93647142Y-108772976D01*
X93570952Y-108811071D01*
X93532857Y-108849166D01*
X93494761Y-108925357D01*
%TO.C,C8*%
X82924666Y-113569714D02*
X82886571Y-113607809D01*
X82772285Y-113645904D01*
X82696095Y-113645904D01*
X82581809Y-113607809D01*
X82505619Y-113531619D01*
X82467523Y-113455428D01*
X82429428Y-113303047D01*
X82429428Y-113188761D01*
X82467523Y-113036380D01*
X82505619Y-112960190D01*
X82581809Y-112884000D01*
X82696095Y-112845904D01*
X82772285Y-112845904D01*
X82886571Y-112884000D01*
X82924666Y-112922095D01*
X83381809Y-113188761D02*
X83305619Y-113150666D01*
X83267523Y-113112571D01*
X83229428Y-113036380D01*
X83229428Y-112998285D01*
X83267523Y-112922095D01*
X83305619Y-112884000D01*
X83381809Y-112845904D01*
X83534190Y-112845904D01*
X83610380Y-112884000D01*
X83648476Y-112922095D01*
X83686571Y-112998285D01*
X83686571Y-113036380D01*
X83648476Y-113112571D01*
X83610380Y-113150666D01*
X83534190Y-113188761D01*
X83381809Y-113188761D01*
X83305619Y-113226857D01*
X83267523Y-113264952D01*
X83229428Y-113341142D01*
X83229428Y-113493523D01*
X83267523Y-113569714D01*
X83305619Y-113607809D01*
X83381809Y-113645904D01*
X83534190Y-113645904D01*
X83610380Y-113607809D01*
X83648476Y-113569714D01*
X83686571Y-113493523D01*
X83686571Y-113341142D01*
X83648476Y-113264952D01*
X83610380Y-113226857D01*
X83534190Y-113188761D01*
%TO.C,C5*%
X80545714Y-106943333D02*
X80583809Y-106981428D01*
X80621904Y-107095714D01*
X80621904Y-107171904D01*
X80583809Y-107286190D01*
X80507619Y-107362380D01*
X80431428Y-107400476D01*
X80279047Y-107438571D01*
X80164761Y-107438571D01*
X80012380Y-107400476D01*
X79936190Y-107362380D01*
X79860000Y-107286190D01*
X79821904Y-107171904D01*
X79821904Y-107095714D01*
X79860000Y-106981428D01*
X79898095Y-106943333D01*
X79821904Y-106219523D02*
X79821904Y-106600476D01*
X80202857Y-106638571D01*
X80164761Y-106600476D01*
X80126666Y-106524285D01*
X80126666Y-106333809D01*
X80164761Y-106257619D01*
X80202857Y-106219523D01*
X80279047Y-106181428D01*
X80469523Y-106181428D01*
X80545714Y-106219523D01*
X80583809Y-106257619D01*
X80621904Y-106333809D01*
X80621904Y-106524285D01*
X80583809Y-106600476D01*
X80545714Y-106638571D01*
%TO.C,D1*%
X91293904Y-115906476D02*
X90493904Y-115906476D01*
X90493904Y-115716000D01*
X90532000Y-115601714D01*
X90608190Y-115525523D01*
X90684380Y-115487428D01*
X90836761Y-115449333D01*
X90951047Y-115449333D01*
X91103428Y-115487428D01*
X91179619Y-115525523D01*
X91255809Y-115601714D01*
X91293904Y-115716000D01*
X91293904Y-115906476D01*
X91293904Y-114687428D02*
X91293904Y-115144571D01*
X91293904Y-114916000D02*
X90493904Y-114916000D01*
X90608190Y-114992190D01*
X90684380Y-115068380D01*
X90722476Y-115144571D01*
%TO.C,R24*%
X113899904Y-94494285D02*
X113518952Y-94760952D01*
X113899904Y-94951428D02*
X113099904Y-94951428D01*
X113099904Y-94646666D01*
X113138000Y-94570476D01*
X113176095Y-94532380D01*
X113252285Y-94494285D01*
X113366571Y-94494285D01*
X113442761Y-94532380D01*
X113480857Y-94570476D01*
X113518952Y-94646666D01*
X113518952Y-94951428D01*
X113176095Y-94189523D02*
X113138000Y-94151428D01*
X113099904Y-94075238D01*
X113099904Y-93884761D01*
X113138000Y-93808571D01*
X113176095Y-93770476D01*
X113252285Y-93732380D01*
X113328476Y-93732380D01*
X113442761Y-93770476D01*
X113899904Y-94227619D01*
X113899904Y-93732380D01*
X113366571Y-93046666D02*
X113899904Y-93046666D01*
X113061809Y-93237142D02*
X113633238Y-93427619D01*
X113633238Y-92932380D01*
%TO.C,C6*%
X91471714Y-118891913D02*
X91509809Y-118930008D01*
X91547904Y-119044294D01*
X91547904Y-119120484D01*
X91509809Y-119234770D01*
X91433619Y-119310960D01*
X91357428Y-119349056D01*
X91205047Y-119387151D01*
X91090761Y-119387151D01*
X90938380Y-119349056D01*
X90862190Y-119310960D01*
X90786000Y-119234770D01*
X90747904Y-119120484D01*
X90747904Y-119044294D01*
X90786000Y-118930008D01*
X90824095Y-118891913D01*
X90747904Y-118206199D02*
X90747904Y-118358580D01*
X90786000Y-118434770D01*
X90824095Y-118472865D01*
X90938380Y-118549056D01*
X91090761Y-118587151D01*
X91395523Y-118587151D01*
X91471714Y-118549056D01*
X91509809Y-118510960D01*
X91547904Y-118434770D01*
X91547904Y-118282389D01*
X91509809Y-118206199D01*
X91471714Y-118168103D01*
X91395523Y-118130008D01*
X91205047Y-118130008D01*
X91128857Y-118168103D01*
X91090761Y-118206199D01*
X91052666Y-118282389D01*
X91052666Y-118434770D01*
X91090761Y-118510960D01*
X91128857Y-118549056D01*
X91205047Y-118587151D01*
%TO.C,R21*%
X95497714Y-104501904D02*
X95231047Y-104120952D01*
X95040571Y-104501904D02*
X95040571Y-103701904D01*
X95345333Y-103701904D01*
X95421523Y-103740000D01*
X95459619Y-103778095D01*
X95497714Y-103854285D01*
X95497714Y-103968571D01*
X95459619Y-104044761D01*
X95421523Y-104082857D01*
X95345333Y-104120952D01*
X95040571Y-104120952D01*
X95802476Y-103778095D02*
X95840571Y-103740000D01*
X95916761Y-103701904D01*
X96107238Y-103701904D01*
X96183428Y-103740000D01*
X96221523Y-103778095D01*
X96259619Y-103854285D01*
X96259619Y-103930476D01*
X96221523Y-104044761D01*
X95764380Y-104501904D01*
X96259619Y-104501904D01*
X97021523Y-104501904D02*
X96564380Y-104501904D01*
X96792952Y-104501904D02*
X96792952Y-103701904D01*
X96716761Y-103816190D01*
X96640571Y-103892380D01*
X96564380Y-103930476D01*
%TO.C,U2*%
X102514476Y-115893904D02*
X102514476Y-116541523D01*
X102552571Y-116617714D01*
X102590666Y-116655809D01*
X102666857Y-116693904D01*
X102819238Y-116693904D01*
X102895428Y-116655809D01*
X102933523Y-116617714D01*
X102971619Y-116541523D01*
X102971619Y-115893904D01*
X103314476Y-115970095D02*
X103352571Y-115932000D01*
X103428761Y-115893904D01*
X103619238Y-115893904D01*
X103695428Y-115932000D01*
X103733523Y-115970095D01*
X103771619Y-116046285D01*
X103771619Y-116122476D01*
X103733523Y-116236761D01*
X103276380Y-116693904D01*
X103771619Y-116693904D01*
%TO.C,C3*%
X106457714Y-125863333D02*
X106495809Y-125901428D01*
X106533904Y-126015714D01*
X106533904Y-126091904D01*
X106495809Y-126206190D01*
X106419619Y-126282380D01*
X106343428Y-126320476D01*
X106191047Y-126358571D01*
X106076761Y-126358571D01*
X105924380Y-126320476D01*
X105848190Y-126282380D01*
X105772000Y-126206190D01*
X105733904Y-126091904D01*
X105733904Y-126015714D01*
X105772000Y-125901428D01*
X105810095Y-125863333D01*
X105733904Y-125596666D02*
X105733904Y-125101428D01*
X106038666Y-125368095D01*
X106038666Y-125253809D01*
X106076761Y-125177619D01*
X106114857Y-125139523D01*
X106191047Y-125101428D01*
X106381523Y-125101428D01*
X106457714Y-125139523D01*
X106495809Y-125177619D01*
X106533904Y-125253809D01*
X106533904Y-125482380D01*
X106495809Y-125558571D01*
X106457714Y-125596666D01*
%TO.C,C14*%
X75939714Y-85883714D02*
X75901619Y-85921809D01*
X75787333Y-85959904D01*
X75711142Y-85959904D01*
X75596857Y-85921809D01*
X75520666Y-85845619D01*
X75482571Y-85769428D01*
X75444476Y-85617047D01*
X75444476Y-85502761D01*
X75482571Y-85350380D01*
X75520666Y-85274190D01*
X75596857Y-85198000D01*
X75711142Y-85159904D01*
X75787333Y-85159904D01*
X75901619Y-85198000D01*
X75939714Y-85236095D01*
X76701619Y-85959904D02*
X76244476Y-85959904D01*
X76473047Y-85959904D02*
X76473047Y-85159904D01*
X76396857Y-85274190D01*
X76320666Y-85350380D01*
X76244476Y-85388476D01*
X77387333Y-85426571D02*
X77387333Y-85959904D01*
X77196857Y-85121809D02*
X77006380Y-85693238D01*
X77501619Y-85693238D01*
%TO.C,SW2*%
X88849333Y-129101809D02*
X88963619Y-129139904D01*
X89154095Y-129139904D01*
X89230285Y-129101809D01*
X89268380Y-129063714D01*
X89306476Y-128987523D01*
X89306476Y-128911333D01*
X89268380Y-128835142D01*
X89230285Y-128797047D01*
X89154095Y-128758952D01*
X89001714Y-128720857D01*
X88925523Y-128682761D01*
X88887428Y-128644666D01*
X88849333Y-128568476D01*
X88849333Y-128492285D01*
X88887428Y-128416095D01*
X88925523Y-128378000D01*
X89001714Y-128339904D01*
X89192190Y-128339904D01*
X89306476Y-128378000D01*
X89573142Y-128339904D02*
X89763619Y-129139904D01*
X89916000Y-128568476D01*
X90068380Y-129139904D01*
X90258857Y-128339904D01*
X90525523Y-128416095D02*
X90563619Y-128378000D01*
X90639809Y-128339904D01*
X90830285Y-128339904D01*
X90906476Y-128378000D01*
X90944571Y-128416095D01*
X90982666Y-128492285D01*
X90982666Y-128568476D01*
X90944571Y-128682761D01*
X90487428Y-129139904D01*
X90982666Y-129139904D01*
%TO.C,D2*%
X82467523Y-116185904D02*
X82467523Y-115385904D01*
X82658000Y-115385904D01*
X82772285Y-115424000D01*
X82848476Y-115500190D01*
X82886571Y-115576380D01*
X82924666Y-115728761D01*
X82924666Y-115843047D01*
X82886571Y-115995428D01*
X82848476Y-116071619D01*
X82772285Y-116147809D01*
X82658000Y-116185904D01*
X82467523Y-116185904D01*
X83229428Y-115462095D02*
X83267523Y-115424000D01*
X83343714Y-115385904D01*
X83534190Y-115385904D01*
X83610380Y-115424000D01*
X83648476Y-115462095D01*
X83686571Y-115538285D01*
X83686571Y-115614476D01*
X83648476Y-115728761D01*
X83191333Y-116185904D01*
X83686571Y-116185904D01*
%TO.C,R6*%
X88291904Y-103765333D02*
X87910952Y-104032000D01*
X88291904Y-104222476D02*
X87491904Y-104222476D01*
X87491904Y-103917714D01*
X87530000Y-103841523D01*
X87568095Y-103803428D01*
X87644285Y-103765333D01*
X87758571Y-103765333D01*
X87834761Y-103803428D01*
X87872857Y-103841523D01*
X87910952Y-103917714D01*
X87910952Y-104222476D01*
X87491904Y-103079619D02*
X87491904Y-103232000D01*
X87530000Y-103308190D01*
X87568095Y-103346285D01*
X87682380Y-103422476D01*
X87834761Y-103460571D01*
X88139523Y-103460571D01*
X88215714Y-103422476D01*
X88253809Y-103384380D01*
X88291904Y-103308190D01*
X88291904Y-103155809D01*
X88253809Y-103079619D01*
X88215714Y-103041523D01*
X88139523Y-103003428D01*
X87949047Y-103003428D01*
X87872857Y-103041523D01*
X87834761Y-103079619D01*
X87796666Y-103155809D01*
X87796666Y-103308190D01*
X87834761Y-103384380D01*
X87872857Y-103422476D01*
X87949047Y-103460571D01*
%TO.C,R17*%
X109909904Y-94494285D02*
X109528952Y-94760952D01*
X109909904Y-94951428D02*
X109109904Y-94951428D01*
X109109904Y-94646666D01*
X109148000Y-94570476D01*
X109186095Y-94532380D01*
X109262285Y-94494285D01*
X109376571Y-94494285D01*
X109452761Y-94532380D01*
X109490857Y-94570476D01*
X109528952Y-94646666D01*
X109528952Y-94951428D01*
X109909904Y-93732380D02*
X109909904Y-94189523D01*
X109909904Y-93960952D02*
X109109904Y-93960952D01*
X109224190Y-94037142D01*
X109300380Y-94113333D01*
X109338476Y-94189523D01*
X109109904Y-93465714D02*
X109109904Y-92932380D01*
X109909904Y-93275238D01*
%TO.C,R5*%
X115182666Y-75545904D02*
X114916000Y-75164952D01*
X114725523Y-75545904D02*
X114725523Y-74745904D01*
X115030285Y-74745904D01*
X115106476Y-74784000D01*
X115144571Y-74822095D01*
X115182666Y-74898285D01*
X115182666Y-75012571D01*
X115144571Y-75088761D01*
X115106476Y-75126857D01*
X115030285Y-75164952D01*
X114725523Y-75164952D01*
X115906476Y-74745904D02*
X115525523Y-74745904D01*
X115487428Y-75126857D01*
X115525523Y-75088761D01*
X115601714Y-75050666D01*
X115792190Y-75050666D01*
X115868380Y-75088761D01*
X115906476Y-75126857D01*
X115944571Y-75203047D01*
X115944571Y-75393523D01*
X115906476Y-75469714D01*
X115868380Y-75507809D01*
X115792190Y-75545904D01*
X115601714Y-75545904D01*
X115525523Y-75507809D01*
X115487428Y-75469714D01*
%TO.C,LCD1*%
X128595938Y-115915871D02*
X128326564Y-116185245D01*
X127760879Y-115619560D01*
X129053874Y-115350186D02*
X129053874Y-115404061D01*
X129000000Y-115511810D01*
X128946125Y-115565685D01*
X128838375Y-115619560D01*
X128730625Y-115619560D01*
X128649813Y-115592622D01*
X128515126Y-115511810D01*
X128434314Y-115430998D01*
X128353502Y-115296311D01*
X128326564Y-115215499D01*
X128326564Y-115107749D01*
X128380439Y-115000000D01*
X128434314Y-114946125D01*
X128542064Y-114892250D01*
X128595938Y-114892250D01*
X129350186Y-115161624D02*
X128784500Y-114595938D01*
X128919187Y-114461251D01*
X129026937Y-114407377D01*
X129134687Y-114407377D01*
X129215499Y-114434314D01*
X129350186Y-114515126D01*
X129430998Y-114595938D01*
X129511810Y-114730625D01*
X129538748Y-114811438D01*
X129538748Y-114919187D01*
X129484873Y-115026937D01*
X129350186Y-115161624D01*
X130212183Y-114299627D02*
X129888934Y-114622876D01*
X130050558Y-114461251D02*
X129484873Y-113895566D01*
X129511810Y-114030253D01*
X129511810Y-114138003D01*
X129484873Y-114218815D01*
%TO.C,R7*%
X84181904Y-119515333D02*
X83800952Y-119782000D01*
X84181904Y-119972476D02*
X83381904Y-119972476D01*
X83381904Y-119667714D01*
X83420000Y-119591523D01*
X83458095Y-119553428D01*
X83534285Y-119515333D01*
X83648571Y-119515333D01*
X83724761Y-119553428D01*
X83762857Y-119591523D01*
X83800952Y-119667714D01*
X83800952Y-119972476D01*
X83381904Y-119248666D02*
X83381904Y-118715333D01*
X84181904Y-119058190D01*
%TO.C,C11*%
X86099714Y-126269714D02*
X86061619Y-126307809D01*
X85947333Y-126345904D01*
X85871142Y-126345904D01*
X85756857Y-126307809D01*
X85680666Y-126231619D01*
X85642571Y-126155428D01*
X85604476Y-126003047D01*
X85604476Y-125888761D01*
X85642571Y-125736380D01*
X85680666Y-125660190D01*
X85756857Y-125584000D01*
X85871142Y-125545904D01*
X85947333Y-125545904D01*
X86061619Y-125584000D01*
X86099714Y-125622095D01*
X86861619Y-126345904D02*
X86404476Y-126345904D01*
X86633047Y-126345904D02*
X86633047Y-125545904D01*
X86556857Y-125660190D01*
X86480666Y-125736380D01*
X86404476Y-125774476D01*
X87623523Y-126345904D02*
X87166380Y-126345904D01*
X87394952Y-126345904D02*
X87394952Y-125545904D01*
X87318761Y-125660190D01*
X87242571Y-125736380D01*
X87166380Y-125774476D01*
D12*
%TO.C,U4*%
X83845000Y-72950000D02*
X90265000Y-72950000D01*
X90265000Y-91190000D02*
X90265000Y-91570000D01*
X108810000Y-72950000D02*
X109590000Y-72950000D01*
X83845000Y-91190000D02*
X90265000Y-91190000D01*
X109590000Y-72950000D02*
X109590000Y-73950000D01*
X83845000Y-91190000D02*
X83845000Y-72950000D01*
X108810000Y-91190000D02*
X109590000Y-91190000D01*
X109590000Y-91190000D02*
X109590000Y-90190000D01*
%TO.C,C7*%
X104270000Y-102589420D02*
X104270000Y-102870580D01*
X103250000Y-102589420D02*
X103250000Y-102870580D01*
%TO.C,R2*%
X97003641Y-114122500D02*
X96696359Y-114122500D01*
X97003641Y-113362500D02*
X96696359Y-113362500D01*
%TO.C,C15*%
X103270000Y-99530580D02*
X103270000Y-99249420D01*
X104290000Y-99530580D02*
X104290000Y-99249420D01*
%TO.C,R1*%
X99213641Y-114092500D02*
X98906359Y-114092500D01*
X99213641Y-113332500D02*
X98906359Y-113332500D01*
%TO.C,C2*%
X87882000Y-106820580D02*
X87882000Y-106539420D01*
X88902000Y-106820580D02*
X88902000Y-106539420D01*
%TO.C,SW4*%
X127227386Y-78116117D02*
X126767767Y-78575736D01*
X125424264Y-77232233D02*
X125883883Y-76772614D01*
X125141421Y-81333452D02*
X122666548Y-78858579D01*
X125883883Y-76772614D02*
X127227386Y-78116117D01*
X124858579Y-76666548D02*
X127333452Y-79141421D01*
%TO.C,C9*%
X77180580Y-112774000D02*
X76899420Y-112774000D01*
X77180580Y-113794000D02*
X76899420Y-113794000D01*
%TO.C,R14*%
X79973641Y-111230000D02*
X79666359Y-111230000D01*
X79973641Y-111990000D02*
X79666359Y-111990000D01*
%TO.C,R4*%
X95854000Y-69940359D02*
X95854000Y-70247641D01*
X95094000Y-69940359D02*
X95094000Y-70247641D01*
D13*
%TO.C,D3*%
X113940000Y-76454000D02*
G75*
G03*
X113940000Y-76454000I-50000J0D01*
G01*
D12*
%TO.C,C12*%
X120028580Y-78992000D02*
X119747420Y-78992000D01*
X120028580Y-80012000D02*
X119747420Y-80012000D01*
%TO.C,R11*%
X108330000Y-70511641D02*
X108330000Y-70204359D01*
X107570000Y-70511641D02*
X107570000Y-70204359D01*
%TO.C,SW5*%
X74116117Y-76772614D02*
X74575736Y-77232233D01*
X72666548Y-79141421D02*
X75141421Y-76666548D01*
X77333452Y-78858579D02*
X74858579Y-81333452D01*
X73232233Y-78575736D02*
X72772614Y-78116117D01*
X72772614Y-78116117D02*
X74116117Y-76772614D01*
%TO.C,R25*%
X76353641Y-82930000D02*
X76046359Y-82930000D01*
X76353641Y-82170000D02*
X76046359Y-82170000D01*
%TO.C,U3*%
X86070000Y-119380000D02*
X86070000Y-118580000D01*
X86070000Y-119380000D02*
X86070000Y-121180000D01*
X89190000Y-119380000D02*
X89190000Y-120180000D01*
X89190000Y-119380000D02*
X89190000Y-118580000D01*
%TO.C,Y1*%
X112370000Y-116080000D02*
X107270000Y-116080000D01*
X107270000Y-116080000D02*
X107270000Y-128680000D01*
X112370000Y-128680000D02*
X112370000Y-116080000D01*
%TO.C,SW3*%
X92260000Y-96640000D02*
X91960000Y-96340000D01*
X99760000Y-99940000D02*
X99760000Y-100940000D01*
X91960000Y-96340000D02*
X92560000Y-96340000D01*
X101560000Y-94140000D02*
X106460000Y-94140000D01*
X97960000Y-106740000D02*
X93060000Y-106740000D01*
X93060000Y-94140000D02*
X93060000Y-96640000D01*
X92560000Y-96340000D02*
X92260000Y-96640000D01*
X106460000Y-104140000D02*
X106460000Y-106740000D01*
X99260000Y-100440000D02*
X100260000Y-100440000D01*
X106460000Y-106740000D02*
X101560000Y-106740000D01*
X97860000Y-94140000D02*
X93060000Y-94140000D01*
X106460000Y-94140000D02*
X106460000Y-96740000D01*
X93060000Y-106740000D02*
X93060000Y-103940000D01*
X106460000Y-99140000D02*
X106460000Y-101740000D01*
X102760000Y-100440000D02*
G75*
G03*
X102760000Y-100440000I-3000000J0D01*
G01*
%TO.C,C4*%
X84409420Y-104350000D02*
X84690580Y-104350000D01*
X84409420Y-103330000D02*
X84690580Y-103330000D01*
%TO.C,R12*%
X79953641Y-110616000D02*
X79646359Y-110616000D01*
X79953641Y-109856000D02*
X79646359Y-109856000D01*
%TO.C,SW1*%
X114900000Y-126264000D02*
X114900000Y-122124000D01*
X117740000Y-122124000D02*
X118040000Y-122124000D01*
X114900000Y-122124000D02*
X115200000Y-122124000D01*
X118040000Y-122124000D02*
X118040000Y-126264000D01*
X115200000Y-126264000D02*
X114900000Y-126264000D01*
X118040000Y-126264000D02*
X117740000Y-126264000D01*
%TO.C,C10*%
X118870000Y-124346580D02*
X118870000Y-124065420D01*
X119890000Y-124346580D02*
X119890000Y-124065420D01*
%TO.C,R22*%
X93344000Y-70257641D02*
X93344000Y-69950359D01*
X92584000Y-70257641D02*
X92584000Y-69950359D01*
%TO.C,C13*%
X92210580Y-93390000D02*
X91929420Y-93390000D01*
X92210580Y-92370000D02*
X91929420Y-92370000D01*
D13*
%TO.C,D4*%
X86312000Y-102108000D02*
G75*
G03*
X86312000Y-102108000I-50000J0D01*
G01*
D12*
%TO.C,R15*%
X104422000Y-94334359D02*
X104422000Y-94641641D01*
X105182000Y-94334359D02*
X105182000Y-94641641D01*
%TO.C,R16*%
X106502000Y-94334359D02*
X106502000Y-94641641D01*
X105742000Y-94334359D02*
X105742000Y-94641641D01*
%TO.C,R3*%
X97410000Y-69950359D02*
X97410000Y-70257641D01*
X98170000Y-69950359D02*
X98170000Y-70257641D01*
%TO.C,C1*%
X105550000Y-119520580D02*
X105550000Y-119239420D01*
X106570000Y-119520580D02*
X106570000Y-119239420D01*
%TO.C,R13*%
X115670359Y-120134000D02*
X115977641Y-120134000D01*
X115670359Y-120894000D02*
X115977641Y-120894000D01*
D14*
%TO.C,P1*%
X96700000Y-125650000D02*
G75*
G03*
X96700000Y-125650000I-100000J0D01*
G01*
D15*
X95530000Y-134650000D02*
X95530000Y-133420000D01*
X104470000Y-133420000D02*
X104470000Y-134650000D01*
X104470000Y-134650000D02*
X95530000Y-134650000D01*
X95530000Y-129240000D02*
X95530000Y-130680000D01*
X104470000Y-129240000D02*
X104470000Y-130680000D01*
D12*
%TO.C,R10*%
X97408000Y-95350359D02*
X97408000Y-95657641D01*
X96648000Y-95350359D02*
X96648000Y-95657641D01*
%TO.C,Q2*%
X95770000Y-110982500D02*
X95770000Y-112657500D01*
X95770000Y-110982500D02*
X95770000Y-110332500D01*
X98890000Y-110982500D02*
X98890000Y-110332500D01*
X98890000Y-110982500D02*
X98890000Y-111632500D01*
D10*
%TO.C,U5*%
X101860000Y-98180000D02*
X101335000Y-98180000D01*
X97560000Y-98180000D02*
X98085000Y-98180000D01*
X101860000Y-102480000D02*
X101860000Y-101955000D01*
X101860000Y-102480000D02*
X101335000Y-102480000D01*
X97560000Y-102480000D02*
X98085000Y-102480000D01*
X97560000Y-102480000D02*
X97560000Y-101955000D01*
X101860000Y-98180000D02*
X101860000Y-98705000D01*
D12*
%TO.C,R19*%
X92584000Y-123290359D02*
X92584000Y-123597641D01*
X93344000Y-123290359D02*
X93344000Y-123597641D01*
%TO.C,R23*%
X119224359Y-77598000D02*
X119531641Y-77598000D01*
X119224359Y-78358000D02*
X119531641Y-78358000D01*
D13*
%TO.C,D5*%
X87582000Y-116586000D02*
G75*
G03*
X87582000Y-116586000I-50000J0D01*
G01*
D12*
%TO.C,R8*%
X86206359Y-116712000D02*
X86513641Y-116712000D01*
X86206359Y-115952000D02*
X86513641Y-115952000D01*
%TO.C,R20*%
X109094000Y-100737641D02*
X109094000Y-100430359D01*
X109854000Y-100737641D02*
X109854000Y-100430359D01*
%TO.C,R9*%
X96230000Y-95346359D02*
X96230000Y-95653641D01*
X95470000Y-95346359D02*
X95470000Y-95653641D01*
%TO.C,U1*%
X85050000Y-108200000D02*
X84250000Y-108200000D01*
X85050000Y-105080000D02*
X85850000Y-105080000D01*
X85050000Y-105080000D02*
X84250000Y-105080000D01*
X85050000Y-108200000D02*
X86850000Y-108200000D01*
%TO.C,J2*%
X76080000Y-119125000D02*
X76080000Y-117125000D01*
X76500000Y-117125000D02*
X76500000Y-119125000D01*
X77080000Y-119125000D02*
X77080000Y-117125000D01*
X77975000Y-115130000D02*
X77975000Y-115815000D01*
X77850000Y-116500000D02*
X77850000Y-117125000D01*
X77850000Y-117125000D02*
X75730000Y-117125000D01*
X77200000Y-117125000D02*
X77200000Y-119125000D01*
X77500000Y-117125000D02*
X77500000Y-119125000D01*
X75730000Y-117125000D02*
X75730000Y-116209493D01*
X77500000Y-119125000D02*
X77080000Y-119125000D01*
X77290000Y-115130000D02*
X77975000Y-115130000D01*
X77440000Y-117125000D02*
X77440000Y-119125000D01*
X76500000Y-119125000D02*
X76080000Y-119125000D01*
X76790000Y-116500000D02*
X76790000Y-117125000D01*
X77320000Y-117125000D02*
X77320000Y-119125000D01*
%TO.C,Q1*%
X99700000Y-111012500D02*
X99700000Y-112687500D01*
X102820000Y-111012500D02*
X102820000Y-110362500D01*
X99700000Y-111012500D02*
X99700000Y-110362500D01*
X102820000Y-111012500D02*
X102820000Y-111662500D01*
%TO.C,R18*%
X94380000Y-109936141D02*
X94380000Y-109628859D01*
X95140000Y-109936141D02*
X95140000Y-109628859D01*
%TO.C,C8*%
X80249420Y-112774000D02*
X80530580Y-112774000D01*
X80249420Y-113794000D02*
X80530580Y-113794000D01*
%TO.C,C5*%
X81180000Y-106950580D02*
X81180000Y-106669420D01*
X82200000Y-106950580D02*
X82200000Y-106669420D01*
%TO.C,D1*%
X93560000Y-113054000D02*
X93560000Y-115604000D01*
X93560000Y-113054000D02*
X91860000Y-113054000D01*
X91860000Y-113054000D02*
X91860000Y-115604000D01*
%TO.C,R24*%
X107062000Y-94334359D02*
X107062000Y-94641641D01*
X107822000Y-94334359D02*
X107822000Y-94641641D01*
%TO.C,C6*%
X92200000Y-118477420D02*
X92200000Y-118758580D01*
X93220000Y-118477420D02*
X93220000Y-118758580D01*
%TO.C,R21*%
X98793641Y-104200000D02*
X98486359Y-104200000D01*
X98793641Y-103440000D02*
X98486359Y-103440000D01*
%TO.C,U2*%
X104374000Y-120904000D02*
X104374000Y-122854000D01*
X94254000Y-120904000D02*
X94254000Y-118954000D01*
X94254000Y-120904000D02*
X94254000Y-124354000D01*
X104374000Y-120904000D02*
X104374000Y-118954000D01*
%TO.C,C3*%
X106550000Y-122849420D02*
X106550000Y-123130580D01*
X105530000Y-122849420D02*
X105530000Y-123130580D01*
%TO.C,C14*%
X75297420Y-83564000D02*
X75578580Y-83564000D01*
X75297420Y-84584000D02*
X75578580Y-84584000D01*
%TO.C,SW2*%
X91986000Y-130348000D02*
X87846000Y-130348000D01*
X91986000Y-127208000D02*
X91986000Y-127508000D01*
X87846000Y-130348000D02*
X87846000Y-130048000D01*
X91986000Y-130048000D02*
X91986000Y-130348000D01*
X87846000Y-127508000D02*
X87846000Y-127208000D01*
X87846000Y-127208000D02*
X91986000Y-127208000D01*
%TO.C,D2*%
X81790000Y-116630000D02*
X81790000Y-114930000D01*
X81790000Y-116630000D02*
X79240000Y-116630000D01*
X81790000Y-114930000D02*
X79240000Y-114930000D01*
%TO.C,R6*%
X87140000Y-103478359D02*
X87140000Y-103785641D01*
X86380000Y-103478359D02*
X86380000Y-103785641D01*
%TO.C,R17*%
X103072000Y-94334359D02*
X103072000Y-94641641D01*
X103832000Y-94334359D02*
X103832000Y-94641641D01*
%TO.C,R5*%
X115162359Y-76074000D02*
X115469641Y-76074000D01*
X115162359Y-76834000D02*
X115469641Y-76834000D01*
%TO.C,LCD1*%
X125548787Y-119830990D02*
X128196902Y-117182875D01*
X128196902Y-117182875D02*
X127629470Y-116615443D01*
X124473984Y-120905793D02*
X123689096Y-120120904D01*
X124365464Y-118647668D02*
X123979010Y-118261213D01*
X127194557Y-116180530D02*
X126627125Y-115613098D01*
X125011386Y-120368392D02*
X124473984Y-120905793D01*
X123979010Y-118261213D02*
X126627125Y-115613098D01*
X125548787Y-119830990D02*
X125162332Y-119444536D01*
%TO.C,R7*%
X84710000Y-119228359D02*
X84710000Y-119535641D01*
X85470000Y-119228359D02*
X85470000Y-119535641D01*
%TO.C,C11*%
X89788420Y-125474000D02*
X90069580Y-125474000D01*
X89788420Y-126494000D02*
X90069580Y-126494000D01*
%TD*%
M02*
