M48
; DRILL file {KiCad (6.0.0-0)} date 
; FORMAT={-:-/ absolute / inch / decimal}
; #@! TF.CreationDate,2022-03-19T01:27:12+08:00
; #@! TF.GenerationSoftware,Kicad,Pcbnew,(6.0.0-0)
; #@! TF.FileFunction,Plated,1,2,PTH
FMAT,2
INCH
; #@! TA.AperFunction,Plated,PTH,ViaDrill
T1C0.0157
; #@! TA.AperFunction,Plated,PTH,ComponentDrill
T2C0.0197
; #@! TA.AperFunction,Plated,PTH,ComponentDrill
T3C0.0256
; #@! TA.AperFunction,Plated,PTH,ComponentDrill
T4C0.0394
; #@! TA.AperFunction,Plated,PTH,ComponentDrill
T5C0.0787
%
G90
G05
T1
X2.6575Y-3.8386
X2.6575Y-3.937
X2.6575Y-4.0354
X2.6575Y-4.1339
X2.6575Y-4.2323
X2.7559Y-4.3307
X2.7559Y-4.4291
X2.8069Y-3.37
X2.8543Y-3.8386
X2.8543Y-4.1339
X2.8543Y-4.5276
X2.9227Y-3.1804
X2.9395Y-3.31
X2.9528Y-3.8386
X2.9528Y-4.1339
X3.0Y-3.33
X3.0315Y-3.0906
X3.0512Y-3.8386
X3.0512Y-4.1339
X3.0512Y-4.8228
X3.12Y-4.34
X3.1496Y-4.8228
X3.248Y-3.937
X3.248Y-4.9213
X3.3Y-4.27
X3.34Y-4.2
X3.3465Y-3.8386
X3.3465Y-4.4291
X3.3465Y-4.9213
X3.4449Y-3.8386
X3.4449Y-4.4291
X3.57Y-3.57
X3.6Y-4.85
X3.6024Y-3.4252
X3.6417Y-2.6575
X3.6417Y-3.0512
X3.6417Y-3.248
X3.6417Y-4.3307
X3.66Y-4.94
X3.6602Y-3.7398
X3.6793Y-3.393
X3.7Y-4.09
X3.7Y-4.55
X3.7065Y-3.4215
X3.7302Y-3.7398
X3.7307Y-4.3422
X3.74Y-2.78
X3.75Y-3.1
X3.75Y-3.7761
X3.7679Y-2.74
X3.77Y-2.83
X3.77Y-3.28
X3.79Y-4.79
X3.82Y-2.78
X3.83Y-4.12
X3.8302Y-4.7902
X3.84Y-3.7761
X3.88Y-4.93
X3.89Y-4.57
X3.89Y-4.79
X3.937Y-5.1181
X3.9492Y-4.4075
X3.95Y-2.97
X3.95Y-3.1
X3.9885Y-4.1022
X4.02Y-4.08
X4.0354Y-3.1496
X4.04Y-4.94
X4.07Y-3.78
X4.13Y-3.05
X4.13Y-3.78
X4.1339Y-3.248
X4.1339Y-4.3307
X4.1351Y-3.8873
X4.14Y-2.99
X4.16Y-3.4
X4.18Y-3.7723
X4.21Y-3.94
X4.2223Y-3.7705
X4.2323Y-5.1181
X4.2323Y-5.2165
X4.4291Y-2.8543
X4.4291Y-3.1496
X4.4291Y-3.248
X4.4291Y-3.3465
X4.4291Y-4.5276
X4.51Y-4.75
X4.5276Y-3.1496
X4.5276Y-3.248
X4.5276Y-3.3465
X4.5276Y-3.4449
X4.5276Y-3.8386
X4.5276Y-3.937
X4.5276Y-4.0354
X4.5276Y-4.1339
X4.5276Y-4.2323
X4.5276Y-4.3307
X4.5276Y-4.4291
X4.5276Y-4.5276
X4.5276Y-5.0197
X4.626Y-3.3465
X4.626Y-3.4449
X4.626Y-4.5276
X4.6798Y-3.07
X4.7244Y-3.3465
X4.7244Y-3.3465
X4.7244Y-3.4449
X4.7244Y-3.5433
X4.7244Y-4.5276
X4.76Y-3.19
X4.8228Y-3.3465
X4.8228Y-3.4449
X4.8228Y-3.5433
X4.8228Y-3.6417
X4.8228Y-3.7402
X4.8228Y-3.8386
X4.8228Y-3.937
X4.8228Y-4.0354
X4.8228Y-4.1339
X4.8228Y-4.2323
X4.9213Y-3.3465
X4.9213Y-3.4449
X4.9213Y-3.5433
X4.9213Y-4.0354
X4.97Y-3.29
X5.1181Y-3.4449
X5.1181Y-4.3307
X5.2165Y-3.6417
X5.2165Y-3.8386
X5.2165Y-4.0354
T2
X3.0035Y-4.5596
X3.0429Y-4.5596
X3.9809Y-2.6759
X4.0203Y-2.6759
X4.0597Y-2.6759
X4.0991Y-2.6759
T3
X4.8908Y-4.708
X4.9262Y-4.6727
X4.9615Y-4.6373
X4.9969Y-4.6019
T4
X3.6323Y-3.8559
X3.6323Y-3.9543
X3.6323Y-4.0528
X4.2031Y-3.8559
X4.2031Y-4.0528
T3
G00X3.7669Y-5.0126
M15
G01X3.7669Y-5.0559
M16
G05
G00X3.7669Y-5.187
M15
G01X3.7669Y-5.2106
M16
G05
G00X4.1071Y-5.0126
M15
G01X4.1071Y-5.0559
M16
G05
G00X4.1071Y-5.187
M15
G01X4.1071Y-5.2106
M16
G05
T5
G00X3.9177Y-3.7339
M15
G01X3.9374Y-3.7339
M16
G05
G00X3.9177Y-4.1748
M15
G01X3.9374Y-4.1748
M16
G05
T0
M30
